<mxfile host="65bd71144e">
    <diagram id="weRCFd72FLhIr2n7rM-o" name="Page-1">
        <mxGraphModel dx="2027" dy="1851" grid="1" gridSize="10" guides="1" tooltips="1" connect="1" arrows="1" fold="1" page="1" pageScale="1" pageWidth="850" pageHeight="1100" math="0" shadow="0">
            <root>
                <mxCell id="0"/>
                <mxCell id="1" parent="0"/>
                <mxCell id="2" value="Data Sources" style="text;html=1;strokeColor=none;fillColor=none;align=center;verticalAlign=middle;whiteSpace=wrap;rounded=0;" vertex="1" parent="1">
                    <mxGeometry x="10" y="95" width="60" height="30" as="geometry"/>
                </mxCell>
                <mxCell id="25" style="edgeStyle=none;html=1;exitX=0.5;exitY=0;exitDx=0;exitDy=0;exitPerimeter=0;entryX=0.603;entryY=0.01;entryDx=0;entryDy=0;entryPerimeter=0;" edge="1" parent="1" target="20">
                    <mxGeometry relative="1" as="geometry">
                        <mxPoint x="285" y="235" as="sourcePoint"/>
                        <mxPoint x="350" y="230" as="targetPoint"/>
                    </mxGeometry>
                </mxCell>
                <mxCell id="4" value="Extract &amp;amp; Load" style="text;html=1;strokeColor=none;fillColor=none;align=center;verticalAlign=middle;whiteSpace=wrap;rounded=0;" vertex="1" parent="1">
                    <mxGeometry x="160" y="140" width="100" height="30" as="geometry"/>
                </mxCell>
                <mxCell id="13" style="edgeStyle=none;html=1;" edge="1" parent="1" source="5">
                    <mxGeometry relative="1" as="geometry">
                        <mxPoint x="150" y="220" as="targetPoint"/>
                    </mxGeometry>
                </mxCell>
                <mxCell id="5" value="" style="html=1;verticalLabelPosition=bottom;align=center;labelBackgroundColor=#ffffff;verticalAlign=top;strokeWidth=2;strokeColor=#0080F0;shadow=0;dashed=0;shape=mxgraph.ios7.icons.settings;" vertex="1" parent="1">
                    <mxGeometry x="25" y="150" width="30" height="30" as="geometry"/>
                </mxCell>
                <mxCell id="6" value="API" style="text;html=1;strokeColor=none;fillColor=none;align=center;verticalAlign=middle;whiteSpace=wrap;rounded=0;" vertex="1" parent="1">
                    <mxGeometry x="10" y="190" width="60" height="30" as="geometry"/>
                </mxCell>
                <mxCell id="14" style="edgeStyle=none;html=1;" edge="1" parent="1" source="7">
                    <mxGeometry relative="1" as="geometry">
                        <mxPoint x="150" y="240" as="targetPoint"/>
                    </mxGeometry>
                </mxCell>
                <mxCell id="7" value="" style="shape=cylinder3;whiteSpace=wrap;html=1;boundedLbl=1;backgroundOutline=1;size=15;" vertex="1" parent="1">
                    <mxGeometry x="10" y="220" width="50" height="70" as="geometry"/>
                </mxCell>
                <mxCell id="8" value="Database" style="text;html=1;strokeColor=none;fillColor=none;align=center;verticalAlign=middle;whiteSpace=wrap;rounded=0;" vertex="1" parent="1">
                    <mxGeometry x="10" y="300" width="60" height="30" as="geometry"/>
                </mxCell>
                <mxCell id="15" style="edgeStyle=none;html=1;" edge="1" parent="1" source="9">
                    <mxGeometry relative="1" as="geometry">
                        <mxPoint x="140" y="260" as="targetPoint"/>
                    </mxGeometry>
                </mxCell>
                <mxCell id="9" value="" style="aspect=fixed;html=1;points=[];align=center;image;fontSize=12;image=img/lib/azure2/general/Files.svg;" vertex="1" parent="1">
                    <mxGeometry x="17.14" y="340" width="45.71" height="50" as="geometry"/>
                </mxCell>
                <mxCell id="10" value="Files" style="text;html=1;strokeColor=none;fillColor=none;align=center;verticalAlign=middle;whiteSpace=wrap;rounded=0;" vertex="1" parent="1">
                    <mxGeometry x="10" y="390" width="60" height="30" as="geometry"/>
                </mxCell>
                <mxCell id="16" style="edgeStyle=none;html=1;" edge="1" parent="1" source="11">
                    <mxGeometry relative="1" as="geometry">
                        <mxPoint x="160" y="270" as="targetPoint"/>
                    </mxGeometry>
                </mxCell>
                <mxCell id="11" value="" style="html=1;verticalLabelPosition=bottom;align=center;labelBackgroundColor=#ffffff;verticalAlign=top;strokeWidth=2;strokeColor=#0080F0;shadow=0;dashed=0;shape=mxgraph.ios7.icons.cloud;" vertex="1" parent="1">
                    <mxGeometry y="440" width="90" height="40" as="geometry"/>
                </mxCell>
                <mxCell id="12" value="Business Apps" style="text;html=1;strokeColor=none;fillColor=none;align=center;verticalAlign=middle;whiteSpace=wrap;rounded=0;" vertex="1" parent="1">
                    <mxGeometry x="5" y="500" width="60" height="30" as="geometry"/>
                </mxCell>
                <mxCell id="17" value="" style="whiteSpace=wrap;html=1;shape=mxgraph.basic.cloud_rect" vertex="1" parent="1">
                    <mxGeometry x="320" y="40" width="490" height="470" as="geometry"/>
                </mxCell>
                <mxCell id="31" style="edgeStyle=none;html=1;exitX=0.5;exitY=1;exitDx=0;exitDy=0;entryX=0.5;entryY=0;entryDx=0;entryDy=0;" edge="1" parent="1" source="20" target="26">
                    <mxGeometry relative="1" as="geometry"/>
                </mxCell>
                <mxCell id="20" value="" style="rounded=1;whiteSpace=wrap;html=1;rotation=-90;" vertex="1" parent="1">
                    <mxGeometry x="230" y="210" width="360" height="120" as="geometry"/>
                </mxCell>
                <mxCell id="21" value="RAW" style="text;html=1;strokeColor=none;fillColor=none;align=center;verticalAlign=middle;whiteSpace=wrap;rounded=0;" vertex="1" parent="1">
                    <mxGeometry x="365" y="60" width="60" height="30" as="geometry"/>
                </mxCell>
                <mxCell id="22" value="" style="shape=cylinder3;whiteSpace=wrap;html=1;boundedLbl=1;backgroundOutline=1;size=15;" vertex="1" parent="1">
                    <mxGeometry x="370" y="100" width="60" height="60" as="geometry"/>
                </mxCell>
                <mxCell id="23" value="" style="shape=cylinder3;whiteSpace=wrap;html=1;boundedLbl=1;backgroundOutline=1;size=15;" vertex="1" parent="1">
                    <mxGeometry x="370" y="190" width="60" height="60" as="geometry"/>
                </mxCell>
                <mxCell id="24" value="" style="shape=cylinder3;whiteSpace=wrap;html=1;boundedLbl=1;backgroundOutline=1;size=15;" vertex="1" parent="1">
                    <mxGeometry x="370" y="285" width="60" height="60" as="geometry"/>
                </mxCell>
                <mxCell id="26" value="" style="rounded=1;whiteSpace=wrap;html=1;rotation=-90;" vertex="1" parent="1">
                    <mxGeometry x="480" y="140" width="360" height="260" as="geometry"/>
                </mxCell>
                <mxCell id="27" value="&lt;i&gt;Source_1&lt;/i&gt;" style="text;html=1;strokeColor=none;fillColor=none;align=center;verticalAlign=middle;whiteSpace=wrap;rounded=0;" vertex="1" parent="1">
                    <mxGeometry x="365" y="160" width="60" height="30" as="geometry"/>
                </mxCell>
                <mxCell id="29" value="&lt;i&gt;Source_2&lt;/i&gt;" style="text;html=1;strokeColor=none;fillColor=none;align=center;verticalAlign=middle;whiteSpace=wrap;rounded=0;" vertex="1" parent="1">
                    <mxGeometry x="370" y="255" width="60" height="30" as="geometry"/>
                </mxCell>
                <mxCell id="30" value="&lt;i&gt;Source_N&lt;/i&gt;" style="text;html=1;strokeColor=none;fillColor=none;align=center;verticalAlign=middle;whiteSpace=wrap;rounded=0;" vertex="1" parent="1">
                    <mxGeometry x="365" y="360" width="60" height="30" as="geometry"/>
                </mxCell>
                <mxCell id="32" value="ANALYTICS" style="text;html=1;strokeColor=none;fillColor=none;align=center;verticalAlign=middle;whiteSpace=wrap;rounded=0;" vertex="1" parent="1">
                    <mxGeometry x="620" y="60" width="60" height="30" as="geometry"/>
                </mxCell>
                <mxCell id="33" value="" style="shape=cylinder3;whiteSpace=wrap;html=1;boundedLbl=1;backgroundOutline=1;size=15;" vertex="1" parent="1">
                    <mxGeometry x="540" y="205" width="60" height="80" as="geometry"/>
                </mxCell>
                <mxCell id="34" value="" style="shape=cylinder3;whiteSpace=wrap;html=1;boundedLbl=1;backgroundOutline=1;size=15;" vertex="1" parent="1">
                    <mxGeometry x="630" y="205" width="60" height="80" as="geometry"/>
                </mxCell>
                <mxCell id="35" value="" style="shape=cylinder3;whiteSpace=wrap;html=1;boundedLbl=1;backgroundOutline=1;size=15;" vertex="1" parent="1">
                    <mxGeometry x="720" y="160" width="60" height="60" as="geometry"/>
                </mxCell>
                <mxCell id="36" value="" style="shape=cylinder3;whiteSpace=wrap;html=1;boundedLbl=1;backgroundOutline=1;size=15;" vertex="1" parent="1">
                    <mxGeometry x="720" y="240" width="60" height="60" as="geometry"/>
                </mxCell>
                <mxCell id="37" value="" style="shape=cylinder3;whiteSpace=wrap;html=1;boundedLbl=1;backgroundOutline=1;size=15;" vertex="1" parent="1">
                    <mxGeometry x="720" y="330" width="60" height="60" as="geometry"/>
                </mxCell>
                <mxCell id="38" value="&lt;i&gt;Staging&lt;/i&gt;" style="text;html=1;strokeColor=none;fillColor=none;align=center;verticalAlign=middle;whiteSpace=wrap;rounded=0;" vertex="1" parent="1">
                    <mxGeometry x="540" y="170" width="60" height="30" as="geometry"/>
                </mxCell>
                <mxCell id="39" value="&lt;i&gt;Warehouse&lt;/i&gt;" style="text;html=1;strokeColor=none;fillColor=none;align=center;verticalAlign=middle;whiteSpace=wrap;rounded=0;" vertex="1" parent="1">
                    <mxGeometry x="620" y="170" width="60" height="30" as="geometry"/>
                </mxCell>
                <mxCell id="40" value="&lt;i&gt;Marts&lt;/i&gt;" style="text;html=1;strokeColor=none;fillColor=none;align=center;verticalAlign=middle;whiteSpace=wrap;rounded=0;" vertex="1" parent="1">
                    <mxGeometry x="720" y="110" width="60" height="30" as="geometry"/>
                </mxCell>
                <mxCell id="43" value="&lt;b&gt;Transformation&lt;/b&gt;" style="text;html=1;strokeColor=none;fillColor=none;align=center;verticalAlign=middle;whiteSpace=wrap;rounded=0;" vertex="1" parent="1">
                    <mxGeometry x="365" y="600" width="95" height="40" as="geometry"/>
                </mxCell>
                <mxCell id="45" value="&lt;b&gt;Version Control&lt;/b&gt;" style="text;html=1;strokeColor=none;fillColor=none;align=center;verticalAlign=middle;whiteSpace=wrap;rounded=0;" vertex="1" parent="1">
                    <mxGeometry x="503.33" y="600" width="60" height="30" as="geometry"/>
                </mxCell>
                <mxCell id="49" value="" style="aspect=fixed;html=1;points=[];align=center;image;fontSize=12;image=img/lib/azure2/databases/Azure_Synapse_Analytics.svg;" vertex="1" parent="1">
                    <mxGeometry x="510" y="-50" width="60" height="69" as="geometry"/>
                </mxCell>
                <mxCell id="50" value="" style="aspect=fixed;html=1;points=[];align=center;image;fontSize=12;image=img/lib/azure2/databases/Data_Factory.svg;" vertex="1" parent="1">
                    <mxGeometry x="176" y="190" width="68" height="68" as="geometry"/>
                </mxCell>
                <mxCell id="52" value="" style="shape=image;verticalLabelPosition=bottom;labelBackgroundColor=default;verticalAlign=top;aspect=fixed;imageAspect=0;image=data:image/png,iVBORw0KGgoAAAANSUhEUgAAA/wAAAFPCAYAAADwYMUJAAAAAXNSR0IArs4c6QAAAARnQU1BAACxjwv8YQUAAAAJcEhZcwAAEnQAABJ0Ad5mH3gAALXmSURBVHhe7f0HnGTHed4Lv9M5d0/c2bxIC5DIBAEwJzFTopJFZSpYTjfan+6V/LOv/UHX0ucrWb7Oli0rUYGkJIqKJMEoBoAZIImcF5t3ck/nPF891V27vY2emTMz3T196jx/6fDt6jPYmVPp1FNv1VsTx44d2xBCCCGEEEIIIYRYhRb8ExMTsrFxRfczzTTTTBsGmfZNiCSDfrk1GZWjsZAcjgblWDwsR5Q9qK7pUEDC+KEu1moNWaw2ZL3elKb6Z86Wa3KmWJMncmV1VeSSujeovw8wzTTTTBuYZppppg1MM+3W9FA9/AfCajCvBvWZkF+nJ9VAP+K/ejAPCo2W5NVVb23I84WqrNUbUm629OCeEOJe/KqzgYi/NhGWk4mQ3JCMyHHVJ6TQFyhhH/H7JNq5IPRD6vKp/6abuuqsaqpvqKsOoSUbUlF9Q0Wlc/WmrNWaSvDX5dl8VZ7OV7RdUGlCCCGEEEKIEvzHjx/XshozAJgJMOw0nQ745IgayB+KBPVgfiYckIPq86yyiYBf/zy+D/Z47wDEfUkJ/pb6fLHSUOK/IcvKLqvBPMT/+XJdXTX1c1dmAPb69zLNNNPDSWNO74Bq9yeTUblRCfwDYb8cira9+YeVnepMAA6ChhL+RdV/XKjU5VypLqeKVXlRXedUn/G0Ev+rtYaeMBjk8wGmmWaaaQPTTDPNtIFppscxvWsPf0D9x/DKYRkuPPcnlNh/WSoqNyTD2qN3LB6SuLq/W1aqDT2IX1AXBu5P5ita9K/WmrKovsMkARcAEDIedPcHhyIBebnqC145FZdXTsYkGfC9xGs/LOD9X1B9x9O5inxttSiPrZfljBL/6E+qLUwpEkIIIYQQ4h386XT6PjMT4MRiiW404JfpcEBuTUfl7xyZlB87PiXvPZSWe6bjegk/vPpYmrsXYkokHIgE9VLge5RweO1MQm5Rvy8V9EmhsaGX9ELw6yH8Fn8vLS3t8Cw+YVn+TDh4uT/4e9fOyjvn03JtPKzvmZ8fBQHV72SCfrlO9RtvnE3K0XhIsJ6g0GhKSfUZWBGw1fPQ0tLS0tLS0tLS2mR37OGfUwP7e5Wwf/uBpLxOifCIzychNajHoLrz7w6F1saG3tNfUzZba8pnF3Ny/8WcPJ4rS7be7PwUIWSUYGIPk3E/cDhzuT8I+9sTg+MA9v7Ds/9kriJ/dHpVPrmQ06uDCCGEEEII8QKX9/BvRVgN4rFU91VTMXnNdEIv20dAvkHuxd0JTSX6l6oNvXT3kWxZvrCUly8uF3TQPy7zJ2S4YHl+XIn6V2RUf6BE/p2ZqFyfiOxbf+AE7PM/VajK11eLcv9CXkf4R7BQQgghhBBCbGZbDz+E/p1qYP8GNbC/KRXRA3vsyR0XcFzXo+tl+fJyXh7LVeVJNZDH8V2EkMGD/uDlyYhevo8LcTsGsYVnFJiJwofXSvLphZw8uFLUMUIIIYQQQgixlU09/JD01yXD8uqphLztQEpePxNv3xhDEIUbQbm+qgbwX1ouyLOFqlxUA3kM7gkhewMefeyLn48E5JWTcXnTbELuGnEwvkHztdWS/MX5rHxxOS+XKg09GUAIIYQQQoht+BCuHxiL4TuibWNw/1PHp+V/um5mrMU+CCrRMR8Jyvcdzsi/fPlB+d9vmNMrEiZDAX22N0RJ73PS0tJubdFu0H5wxN6rp2KqL5jV/cFb5pKSDvpdK/bBvep5/v61M/Lu+ZReoeDvbAZyki+0tLS0tLS0tLS0brEv8fBPKZF892RMfvaaaX2GNrx44xKAywkI7ldXT4Sj+x7OluRvLubkobWSPo+bEOIcePXvnorLjx+bkltSEUmoviDoG5+AfHsFEfvX6k25/1JOfv/0il4ZRAghhBBCiE1c5eHHMXjfNZfUHnIM8FMuE/vAeCWx1/j1M0n5x+pZ/ulNB+QHD2fkmnh42xkQWlovW/VB78d/q+oH/o8bD+j284pMVAfkwxF7toh9gCP88FxvO5CUd8yn5Dr2D7S0tLS0tLS0tJbZyx5+DHbfqAb57zyQknumYvqmLazWmvJ8oSrfypbkwZWCPJWvymq1off+E0JEC/l00KdX9dwzGZO7puJyk/o8Fw50fsJuHs9V5GMX1+WTl3LyfJGefkIIIYQQYgf+qcnJ+yaDfvnuQ2n5/sNpHZHfNhCT4HA0qD382K8bD/j10mSc0V3mUX7E46BN3JAIy71K5L97Pi0/fHRSrlfp+BidxjFsMLGRCfn1Gf1P56vSYK9ACCGEEEIswH9sZuq+184k5P3Hp+XmVLTztZ1A+F+nhMwbZhNyJBaSqhL7K7WG4BC/phrfc4hPvAK2vmCJPkTum1V7+LFj01ro356J6skwLzIXDkoi4JfH18t6VRD6BEIIIYQQQtzMxP/0qts2fvHGA3IoGpKAh8b5de3db8lTuYp8+OyafG4xL7l6U1qd+4TYDIJzYun+z147I9fGQpIM+iWo2r+bI+8PgmKzJY8qwf//+c45uVSusz8ghBBCCCGuxv8fX/Oy+25IRjzn1cOe5bDPpyOR4/mxlQHH+BUbLR25mxAbgdB/02xSfvL4lHzPoYzckAhJCmJftf8Jj4t9gEnPWMAvjY0NuVCpyzr7AkIIIYQQ4mL8/+E1N90XUcLXq2P9kHr2aSWCsMf/YCQoh2MhPQkATx+uFpf1EpcTVI17VtXtV07G5J3zKXmXuu6dSsgxVddR/yn0r4C8aPcJfjlTqslSrSkV1Q8QQgghhBDiRvy/cu+N93l9vI/nxyB/Xomik4mwHFdCyO+bkEAnY+DtwxYAI4xoad1gsTx/LhKQWzMxed10Qt59MK0Ef1pH4kc8C9IfLHaaCQekuiFysVyTi5V2CD+n+U5LS0tLS0tLS0s7LnZi4x+9hz7sPuDIvmfyVfnUQk4eWCrIs8WqlJotadDlT8YctG8I+lTAJ2+cTcr3H87Iq6binbvEKVjO/3svrsjvvrgs2Tq9/IQQQgghxH3477v75H2dz6QLeEex3/mOTFTumorJTCgop0t1vcd/o8/MCS3tuFjsQX/HgZT8g+tm5b2H0nJ9PKxjVpCdEfJNSNDnk6rS+o/nyo7zn5aWlpaWlpaWlnZcLAX/JiCLsLQXg/5kwKf3O985GZWZcFAv7y82m/ocf0LGhQORoLx5Nin/8LoZeZsS/Fi6P9kJyEd2DjpInF7Q3NiQh9fK+ox+tnhCCCGEEOImuKR/BzRUTj1frMozuYp8ba0kX18tyimV5hn+ZL/wKy1/OBqSlylxf2u6fdoEVqVEdTC+zg+RPfGkau+/8cKyfGYxr0U/IYQQQgghboEe/h2gg3mFAtpzCm9qRKmtgPoSuqqqhAA8/4SMAh15PxyQ29JReeNsQt4zn5I3z6XkZDLcOWKv84Nkz2A7BNr5g8ttwc9WTgghhBBC3MJIPfzwkGMZfKPV30uGJbRYQo/o+NArENjjDJ7lUqUun1zIy/2XcnKqVNOCgMd4kWEBIQ/v/aFoUAfi+5Gjk3KjEvnmRAm3gTmyppLQmCyrqqum+oaNjYkuUb2hBTcmMfCMOCc/4vfp/mGULFUb8v5vvCgvFGvcykMIIYQQQlzDSAX/C8WqfDtbllNq0NyPsBrU3z0V0+fh4xzseMDfuTOeIONaG0qoNDdksVqXr66W5BMX1+WLK0UlWtrH+HVbQ+/3vM/7Tu5D5IZ8Ij9wZEq+ez4lt2diWvxiWb875b5IsdGUc+WGPJwt6n3yT+TKslJrSl0Jf9+ETz8vgmdeFw/riY3j8ZC8ZTapn3uU5NXf+V+fX5a/upCVCzimr0/5GDYrPwPv8z7v8z7v8z7v8z7v8/6o7g9V8MPbfbZcly8vF5UYLspqraGPusLxdv1AZPxM0K+Xyh+NhvR+5FdPx+R4DFHGOz80puCs/jUlVLDH/xtrJX2U31P5quSUUCBkL6DuHwgH5Z6puLxrPinXKvGLLSUIJulGMEmWb7Tk0wt53S+cLtUkq/oFXAXVXuBBN050PGFIifu4yoSE6hti6vOhSEDeMpeS107HVd8Qav/gkMEKhCfyFfnlJy/JN1X7JoQQQgghxA0MTfA/sl6Wh9XA+NFcWZ5WwvfpXEWfbQ82m5EwIJ1WYua4EjY3J8Py+tmkEjsxmQ4FOj8xvmA5/0KlIU8qcfCdbEm+mS0r4V+RvBIzBifPzzTT4LpEWG5JRXVAvtvS7YB82PbiVnKqHTxVqMrfLuTk66p/eF59XsdRlw7zA0+O/fQIUviKyZje1vD62YTEhhykEL8eE5W/+Oh5+dxSQUpdE3k7KU/ANNNMM21gmmmmmTYwzfSw0gMV/Di+qtLc0Ptc//JCVg2M85su33eKXuavBvbvOZiWe9Xg/kgsqAOWuYGLlbp8ZaUoX1wuylO5slysNvQSZkT1J2QzIOinQn4l9iPyKlX3Xz0dl5tSEYmPeBn7oFmuNeQ72bJ8/FJOx7zYbKWPUxIqPxC08EeOTeo+YjocGHrf8G+eXpS/vJiV8+V65xtCCCGEEELGl4FG6S8pJQtv9n97YVk+u5hXgrfRuQMPWXsvgcFpGuL4jBpcP5ItCUL5YQlvOjjee/sNyYBfXqaEGryymVBAKjoomeiVDjpw4S7yw8C0femAzyfxgE+ORUPyptmk/JOTc/pc/aOqzrvZqw8QkO/B5aL8welVHeQSwfn2ml911TdAeGOJ/aFIUOaU4I/5/ernOj80BBZrDTldrKnfW9vz38800wammWaaaQPTTDPNtGFQ6YF6+B9dL8t/fG5J78uF+Mde3UGB/f0H1ID+uw+m5Z/ddKDzrTvAygcThfzBlaJ85Nyatoz2TbrBPv13zKfkvQdT+ujHqBL/8OlfabbuBStd/vDMqnx6MT/w4ysxFzIZ9Msv3XxI3ozl/UNcCYGtOr91akU+ej7b+YYQQgghhJDxZWAjY4j9v7ywLg9ly1rsN3uO3sMMQzc7TePfW6425IvLeflNNeAu7nE58CjBsWKIKo6VCVie/fMnD8gvvXxee3GTwfYRY3vNH6bdmY74fHIiFpIfPTop/0LViZ86PqVXhSSU2Mc6FreLfazQwekcH1EC+Wurxctif1D5B/BPImDmB8+sypeWCp1vhwO2WiBY4iD/fsA0090wzXQ3TDPdDdNMd8M0091slh6Ih3+l1pCPnl+XD6kBN86iHybw3p1MhOX/vvmgXK9s1KX7mleVQPl2tiSP5cry6HpFHs9V9J5/4g0Qef/aeEjumozLnZmonExG9NFzbo28vxmFRkt++8W2R/zMkPsGxDh435FJef+JKT2JMgwQlPO/PL8kv/HCMmNxEOIQDDhaPU4AGwjq8ceE2PRkmGTG+wnbDpuWrULEs4UCfl1eXGBJCPESAxH8X1ouyu+fXpHPLOY73wwXiKK/d82MfN+htN7f7Faw5QGC6GEl/L+8WtKnGpwqViVbbw10OwQZDzDYCPqwNSWo6m1QXjMd13v0X56KtH/AMnAs53OFmo5sDy8/trQMm9vTUXnf0Un5MXUNi995cUX+qxL9KzUeuUmIE6rVqtRqtZd4HtxOLBySYCgkGxP2TNRqwS8bki+Vpd64EofJBrA1NBFV71t/QD0onpQQQrzBngU/9qf/v88uyV9fWJez5bYHD8EB8GLvtYa93g+o9HwkIL9yyyF57XRi7M/odwIilj+SLcuHzq7Jw+tlWak2pKYeGVsZdpo/vD9+931qAJUI+OVQNChvmknovfo3JMJD3W++3yDY5kdUff69M6t9j6XstYa93A+ovuAtc0n5d7cd0at/1K2Bg61Lv31qWR7LV3f89wHe532v3c9ms/rq/jkbSCQSkkwmJRwOd74Zz/zfyX1Qr9dlZWVFKpVK5xs78Pl8kkqlJB6PSwgTNbvIH97nfd7nfTfe31OUfoj9rBrI/9GZNb0k/cqvHC5YjlVsbshNybAciYb0fme3g7PF55UYfI0Sg7emIrJea8csqFi4DNKLYCUKjpb8hZMH5E1KkB5S9RaR9232MTytBPH/UMJ4qVof2ZJX/B7Ey5iLBNtHeA7hdIOnVF/3rWxZFlT7JIRsDzz8tolHEIlEtNj3+91xcpATMDjE9otyuSwNyzz8GPxC6OOC+CeEEK+wpx6voRQ+9p+v1hta/BvQqXYzjDR+31NKUJzrrCpwO3hCnCGeDvjkjkxM/vHJWfmFG+fkPfMpmY+EdOA/wyDyrxumh5PGSpSXJyPyc9fMyD+98YC8//iUHFPCHxNU8ERf/V/ZBZbzLyqhf7YMse8svwx7Ta/VW/qovkGfBmBIBv0yGQp0UoP/+5lmuhvb0jbRLy7BoPNrv9O2Mej8YZrpbphmuptxSu/Jw98+W7sgD62V1SB79PtZEfX+xkRYB++zBRRO2Dchs+GAEvpBvYLhRDykz2fPNZpSarRGtpKC7A4sJb9Oldm7Dqbk3fNpecNsXG5JR/Wxkpi4ubo52smlSl2+tlqSL6r+YdT1FU59bJV423xqKEE9z5bqekXTC0U7JhsJGTa2evjh3Ye3OBC4MgHodrzi4bdpVQYhhGzHnkbDiOB6qYJl5+0hPTpTc40ijUmGvBLAtgLRj2P8EIDsJ49Nyfceysg9Kj0fDbXPZ+/JD6b3Nw0xf1wJ/dfPJOQHj2TkZ05My3sPpeWmZMS66Pvbga0+S7XGlvk1rDQmIherjaFHmN7s9zPNNNMvTdvIVs/r9rStbPa8TDPNNNM2p/fk4S83N+Tjl9a1pwtLeEdNUD0Hlr/fnol2vrETCMnD0aC8TgnJo0rsV1Verzea2nOKo3OGrGvIFqApIWhkIuiXg5GAfN+hjPzk8Sl5+4GUZNR3Q9hC7gqwvx1HTj6yXu58MzoaG+1AJT90ZFJvnxh0EZwu1fRz4eQBQsj22OrhDwaD9PC7CLwXjIefe/gJIV5izz1e7wzCqNNe4xWTUfk/Th6Q/3DHUX3m+MFoaMv8YXq4aQRbPBYPy48cycgH7j4uf+/EtFyv0l5nvd6UlVr7hInu/BpVGjE+1mqNoe3jB92/j2mmmd48DRFpIgXbBESjEY7dz2tD2lY2e16mmWaaaZvTe/LwV5ob8vmlvPZ47YeHH8OHV0zG5JXq8grw9mOPP+IXIHYBzh2HJxkCC8uoyeh4RSYm338oIz9yNCNvmE3J4WhIwv4Jz3r1u1lRYvv5YlUe2wcPP4BnHyst0DZMhzco6OEnZGfAu08Pvzugh58QQuxjT+fwZ2tN+b+fuiRfWi7qAf6oSQd98r9cNyt/98R05xvvUWm25DklPL6drch3lAiBwDpbrkmpyXX+wyCmBP3xWFheNR2XO9IReVkyIkeiQX0UHLnC84Wq/PmFdfmvLyx3vhkdOIrv2lhIfv/u4zoOxqD55KWcfODMmnx1tdj5hhCyFWtra/ocftvAGfy95/C7HQh+CP3l5WXrJmkg8nEOfyKR0JM1hBDiFQbm4S/tg4c/E/DLvVNx6/fwbwWWlM+Fg9rbfyIWlKTKk9DEhN7HjBgLDW7wHwgQ9EeVsL8rE5O3HkjKDx+Z1PVuRglKlAG5GhzZiYmnLywVOt+MjlTQL7emo/K2ucRQovR/O1uWB5YL+zLJSYgbsdXDD6HPc/jdAz38hBCvsicPP5aR/+rTi/I5JfoRFXvU4Ezzv39iWn7s2GTnGwJeLNXkE5fy2hN5WomuvCone88yGB7Q8dhCEVei8Vg0JO+YT8m75pNyQtU7sjWYAPzMYl5+8dELUmttjPRoPpTP+45k9MkWOM5y0Pzei6vyG6eWZWkf+jxC3IitHn54iuHhj0QinW/cDz38hBBiH3saDQeVGLoz095DbgLyjNLirHNERidXA0/0Tx+flF+99ZCyUzIV8suEg/ykvdpG1ODgeiUef/bEdCcvJ3Xeku2BZ/1INCS3pSJ6ib2T/B6UnQoFdFwP/N5hkGs0Zbkj9p38PbS0Xre2AgGJy2k+uM3aitPnp6WlpbXF7knwYykz9i/HcPSVEv9glBb7c9NKzJKrgVcagutEPCQ/eDgj/+mOI/Kz10zLjcmwhDpLnJ3kr1cthOJNSqj++LFJ+eVbDsn3H0rrvESeIm/J9iCXDkWC8q6Dab0dwkm+D8JiOf+xWFDV9YgE2l8NlPPluvbst7tP538XLa1XLfpTW7c9OXl+N1tbcfr8tLS0tLbYPQl+nD9+rRJC80p4RzsvdKczDXux+E1+NeTG0t0DYXpcNwPR/DEhgzgHP6CE/8+cmNZLnW9LR8Wsi3CS316xWLFyqxL6yCOsjPg+JfSxguWwykPkJdkZmaBP7pmMyfWYLOn0NE7KYS/2xkRYXjedkGTAJ75OJzdILlXqkm00Hf89tLRet3p1WSdtG9jrjmfc6vndbG3F6fPT0tLS2mL3tIff8J+fX5a/uJCVF4q1zjfDBRMNx5XY/2c3zctrpmKMkO4QRPQ/W67L19dK8uByUZ4pVLWA2Y+Ai+NETNWf+UhQTiqx+NqZuBapWLrPerV3iqpu/dHpNfnT81k5VarKMGNIHlBliMmaHzkyObStPn99MScfOssI/YQ4JaTe1ytra7K8xij9bgCDQ+7hJ4QQuxiIooFAwvFko1pcj6XVb55tB0+jKHMO8uoGJWp/VImiX775oLzvcEZuTkVkMujX+9W95MPGs2LJ92QooPMAeYE8Qd4gj1ivBgNW/vwdvaokLIkh5SnKEvX3tdNxee1UfKhxPZ7JV/SyfkIIgYA0yyUJIYSQcWUgI/BXKMF/ZxpHlA1/xhR/cDrgk3fPJ2WeAft2BZY6Y7n1+49Pyr9SIvd/v35WCbJ2cDWvgEc9GMEpD1M6D5AXyJNhLAP3Mqau/fSJGT1JNwxQb1F/f+hwRvdFwwQnYCxWKfgJIYQQQog72NM5/AaIp3QooD2m314vD3XZLryv/+DaWR2FG8elcXZ9dyDfEEgpEfDrff53ZGI60BnO7s/Vm/ooNRvB3m6sRvneQ2kdff9V0/AIt5fvsy4NB+RrUtWzmZBfwiqfsZVkUNULQfow2fhTqixvzUR1nzAMGurvxZaEj13KyRl6+AlxDLbglSsVKVl4Dj+O48OZ7jadww8Qm6BUKll5Dj+2X9hYZoQQshUDEfwgoYRUUg2+axsbep94XdlBS8brldh/54GUfM/BlEwq8cCI6XsnoPIQoh8nHmApNCKrY6UGJgNKSvyP+gz1YaC9zKGA3K6E4dvmcJZ+Sl47nZBbVDqt6izygAwXeOGxfWJO1S9MuixUG1JWdWsvwh919fUzcb1l4O6pmKRVPcbk4zAoqwHwxy7m5KurZVmrNTvfEkK2g4LffVDwE0KIXQxM8EN8Q/BjEL5cq0tRicWqGs0rs2fgs4P3+Z1KqL3jQFKuiYe59HrAID8h/K9LhPWxZjPhgPaWQgw3Nzb0BM4gynKUhJT6m1Yi82QiooM7vn0+qQR/Uq8OwffDEoekPyiPOVWvrlftF3UJwh9A+DdU/XICxMORWEhervqDN8wkdJ/wxtmEjusxrPJE/V9VIv+3Tq3KC8WqtatfCBkOG1rw47INCn53QcFPCPEqAxP8AF48CMVrlWgs1luSV6N6RIZvqoE4xvNmybRTCy8zlgLPR4PyM8en5L0HU1rsk+ECr/dNSlC9ZjquPf84CLEOkaPKBaIKYg2Sx2k5jtJCQibU3496cywWlruVuP/ho5PyE8cm5ZZU26NP9g9MLGEZ/qtV3bo1HZWQEup51VcALPfHpEDA155owj0ch4jtFjhJYVLVxflwUN41n9YxF2BxLOiwwYQEtiH8wdk1ydabjuohLS1t2zbUGKBULku1WtVpm4Dgh4CEeHSaH26wEPxlVWY2C/5AoB0Daqt8oKWlpbXFDuRYvl6w4HWxUpcvrxTlE5dy8qCyu1kajvPP3z2fku8+mJYTsaD2ONOzPzpQXg1VbvDunyvX5ZH1snxttSSfW8rLeq0p43aYnw7oGPLLW2aTcu9UTG5TghLxCXC+PiaPWHPGC71yRNWvghIEC6q/+PZ6Rc6UanKx3NDCGmU2r0Q+vPrXKGF/RyaqVwdgYjHka3v0R1Gmzymx/4dn1uQj57OeP8KSkJ0C0bi+vi65XK7zjT2k02l9xBsEpC3wWD5CCLGPoQh+gCBX2XpDLlYaehnsU3l15SrynPq8pMRiTQ2cMeOAl4uegVA2HvTLiWhIbkyG9XVDIqIH+rMI9qVG9xT7+we2Z+QbTcmqsltVYuy0EmYPrZXloWxJTwagPFVBXi7PUVjUBwSKvD0Tk1tTEV1njsdCMqXqUUbVGXj5UW/IeNNSZYkJwVyjJRVlq6ouYSJAFa8qv/ZxkVGl+lOqPGOdbQCjoqz+lgdWivLLT16Si9WGngBzWj9paWk3pNlU741s1lrBj3P4IR6d5se4W1Cv12VlZUV7+W2iW/BjksZJftDS0tLaYIcm+A1Y/l1UQvGSGixfUMJwUdmcSmPg3A3EW0iN5WdCATmkRD+O3INw43no48maEv0vFqvyYqkuS9W6KtuG/u5Spa4nAPCdWfo/CFA/sBwf+74PYGl3JCiTKn0oGtAi/xjqTLT9HSGD4ulCVf7i/Lr89ovLA63PhHgFevjdBQaH9PATQohdDF3wE/uBEDpbrslytaGPLHuhWJNzpaqUWqJjOMBLCg8u5ngqrZa22Cag4wJ0gaXaWH4Pp3yks2Qbe7oRkA0e3kORkGSUoD8aCyqB3w4seFQJfSz5JmTQoH7+9aWc/P7pVXk0Z1/AMUJGAcSj7R5+WwW/rR5+syqDEEK8AgU/GQpYpp2tt2S51tBe//V6U08MXKo0dER2nPWP77qBBx8B3RCwDSs8IOTxHbz5WPmRCTKGAxkdZ0s1+c0XV+WPzqx2viGE7BR6+N0FPfyEEGIfFPxkaMCBj1CNqGDGmY+JAHzcrNJBzuMywh5e/vZ3bc8/IaPiv59akY+ez8pzxVrnG0LITqGH313Qw08IIfbBDfJkaECg+5Vw10esqQQuxGTAEn0cs9bvwj38jPl5/Lf4N/BvETIKEHD0+WJVvrnWDkgJMAg2F9NMM72ztO30Pq8taVvZ7HmZZppppm1N08NPCCFdFJst+eOzWfnQuaw+YYQQsnvo4XcXGBjSw08IIXZBDz8hhHRAgEkEnfzcYl6fNNE7Q9qd7rW8z/u83/++7Wz3/G69byu9z2mevd/3xvI+7/M+75t0r3XDfXr4CSGkw5lSXT5yfk0+cGZNCo1W51tCyG6hh99dYGBIDz8hhNgFPfyEENLhYqUun1wo6OMkuzEzpZvB+7y/FV6/bzvjnv97vW87457/vM/7W8H7vL8V5r7v+UJVB6kihBAvc6pYk68jUJ8S/ThCspuJzqkRm8H7vL8VXr7farW2HZC4nXHOf7DX+7Yz7vnP+7y/FbzP+1th7vv++lJO71slhBAv81iuIp9banv3cXxkN72ChWmmu2F6Z2nbGHT+jFvaNgadP0wz3Q3TTHczLmnfpxcLOhI1RT8hxKucLdflm2tFeSLX3rPaO2PKNNPdML2ztO0MOr/GLW0bg84fppnuhmmmuxmXtO9cuSafWsjLQrWhvyCEEC/R3NiQzy7m5eFsmdubCCGEEEKIVfhKzQ350PmsnCnVOl8RQog3gNhfqzfla2sleb7TBw5qNtXANNPdeC1tO4POr3FL286g84tpprthmulu9jPtz0xO3ldXoj8e8Mt0yC8HIjyqhBDiDSqq7/vEQl6+uFSQxRpXOREyaJrNplQqFanV7HMqRCIRfSSf3+/vfON+sN8TgRZLpZI+ns8mMPgNh8P6sqnMCCFkO/SxfBuqE/zKalEeWa9wLz8hxBMgEv9KvSn3K8F/odJQA93292ZGtNcaeJ/3+1kD7/f/3la2e3633red7Z6f93m/2xp4n/f7WcM43/dPTk7ehw/5RlOmQwE5EQ/JbDigbxJCiK2s1BrywEpRPnp+XXKq/yOEDB56+N2FVzz8Pp/2dxFCiCeYuO6667RfC538y1MR+YFDaXn/8SnhYidCiK3Au//NbEl+/ZkleSyvxEiz9ZKZ0m7QP/I+728G729+v1qtSjablUKh0PnGHjKZjCSTSQkGg2Ob/2An9/EZQn9paUnK5fapJbYAkZ9KpfSFMjOMMn/7wfu8z/u7u4+vm2r8ttUE3jj//WBU9y97+MFqre3lev1MXMK+CfFt8Q8QQohbWajW5UvL8O5npaE6Q0LIcLDZww9PMT387gGDXlNm9PAT4m7QgoOqTVfrdZ3eSvQSlV/IIJNJ2L1/qlSTD57JShkuMEIIsZCn8lX56lpZWl39n+kLmWaa6cGlISBx2Ui/57UlbTu9z8s000yPZxoTkJh8xGqxYrGoV4ytrKzIwuKinL1wUVZWV/X9zf57ptvpqzz8oNbakFyjJXdmopIK+CToa/8wIYTYwAvFmnxqISdfWilKUfV1hJDhUa/X9UAN1jbo4XcXGPRyDz8h44kR9uadgZVh6IdwYXsRLnyHe1gxpi/1s+izYrGYBAKMP7cVl/fwd5NQQv9nj0/J9x9Ky9Eoj+kjhNjDn57Lyp+cX5dvrdu1P5WQcQSDtPX1de2ZsQ2zhx+i3xYweMag20t7+AkhwwfOZriQ642mFvdmctFc2P6FC/1P92fzs/3AJB7a8szMjESj0c63pB8v8fADrOY/U6rJnZmYEvwhoZOfEOJ2WqpfK6kXxwfPrslD2bJUeAQpIUOHHn534QUPP/fwEzI8IBk38H9dgh7ifQPBkVtNKZUrlz326GcQ0DWfz+vPJt4L3hf6v9lE6BvQptGW4/E4Pfzb0NfDDxCw7xdumJX3zCflYIQzoYQQd1NWL5vPLRXlv59alifzVfU6IoQMG3r43QUG2PTwE0J2S0Ap/g0l8vNK2EO4Q8CjT9Gee3jse0T8dqJ+K+jhd47PZHSvbarC+sRCTnvCCCHE7SAQ6YfPrsqZcv3yC2ez/o+WlnZw1lacPr9bra04fX5aWtrNLQQ8Vm/BQ49J3dXVVVlYWJCzFy7IuYuXdGA9M9kLz7322ittif+++9or5t+g3dpu6uEHcb9PfvBwWn7i6KRcG7dnBpsQ4i2Wqg354kpRfu2ZJVmtN1QH2LlBCBkq9PC7CwwO6eEnhGA794TqD6pqzNTo7KnHZZbody/X7/08Kujhd86mHn7YYrMlD6+V5AE1UK62sCODEELcRUN1XKdLNfmri+uS74j9rfo9WlrawVpbcfr8brW24vT5aWm9YI1Yx0QfvPDwxmOyr1Ao6ola7K/P5XJ64tZcOBoP38G7j581cVpGKfYNTp/T63ZLDz/AXoxXTcXkX9x0QE7EwuJnAD9CiItYqTXk/oW8/MrTC1JX76ItOzxCyEChh99dYHBIDz8h9tEtALsv47nHBdGOS++3V2nYcYYefudsG6YU3rGz5YZ8cqGgg14RQoibQIC+r6yWKPYJIYQQ4kkg4OG9h1d+bW1NFhcX5eLFi3Lp0iW99355eVlPziJaPjz24y72yc5wdC7JYrUun1vOy0KlLvXODBEhhIw7hUZLvrNeka8pwc+eixBCCCFeBGIeoh7L8bHiyoh6TAT0ev2JfTgS/JXWhpwp1eUra2VZrTU73xJCyHjztbWSPKSutTr7LUL2Aw4gCSFk/8FSfXPGPYQ+9tuzb/YOjgQ/6gM8Zfcv5JTwr+ll/oR4kXprQ4vHsrJNdpRjC47dy6py+sJyUZ4sVDvfEkJGDQeVhBBCyP7iSPCDmhI4X10tyWO5iqzWuK+DeJOyGrxeqNRludqQlVpTco2mngQg4wX6q4ezZXlkvayP5COEEEIIIcSLaMGPKIdO7ccv5eUba3ZFbiXEKcmAX66LhfSk18dUW/jUQl7OlOudu2RcKDU35ANn1uTFUs1Rv0ZLSztcaztO88Et1lacPj8trY3WVpw+v5etf2pq6j6dcki+0ZKZsF+uiYclFfR3viXEG6Dp+FTDSSnhfzQWRCvSXuTPLxUl4vdJIuCTkK/dwMj+gNUXX1wpyt9cyklO9VdY3k8I2R+wZ9TWiM+RSETC4bD4/faMhbD9AtswEKnbtjLDoBflhQtH9BHiJRCdH/v3bUILWdX/xmIxHrW5DTv28BebLXkoW5EH1ICaEC8CPR9Xwv5gJCjXxUNyYzIiB6NBeXC1JH9wdk0LzeeL3De+XyzUGvLpxYLkmu04C076NVpa2uFa23GaD26xtuL0+WlpbbS24vT5vWx37OEHCOCHf+K2TFTifr8WQIR4kZjfJ3PhgL7Ol+vyXKEmzyqxf7HckPqGSKO1IdGAX4KdRkeGCwL1PbRWlo+cX5ei6qfo2ydkf6GH313Qw0+IndDD720mrr/++l2NieHZ/PGjGfnBQ2ktegghIt9cK8mfX8zJl1dLetn/66dj8qbZhByPhSSh2knUT+E/LODN/2a2LH+ixP5fqTIghOw/GGTi/Ody2b7YP5lMRpLJpBaQtgDBD6G/uLhoXZlB5KfTaUmlUhQHxHNcvHhRn79vExD8aMuzs7MSjUY735J++CcnJ3fs4QfV5oYUGhvytrmkEjEU/ISAA5GAXJ8IS1qJ/YeyJb3M/yvqulCu620Ax5TwJ8MB+/Uh9D96PsuTEwgZE+jhdxf08BNiJ7Z7+AOBQOdb0o9de/j9KpNnQn75+etn5PXTcZkJM6MJAVUlNpdqDXlkvSJ/ci4rzxRr+nu0l6PRoLzrQFJeNRljmxkwn17My4fPr8sDKyUG6iNkTKCH313Qw0+IndDD72186NzBTm2j1dL7ZT96ISvPKUGDc68JISJh34QO6PeaqZj89LFJeY8S+Cn/hDxVqMoXlwvywbNZ+Q/PL8sfnl3TWwAQCJPNZ/cg75CH2EbxZK6ixb7TfoyWlna41lw20++5bbC24vT5aWltsrbjNB+8anft4QfYjRxQ4uZ/vXZavns+pb2XhJCreSpfkY8vFOR+fWZ/TZqqxQVU4zkWDckd6YjcPRmV29NRORILSZQRMHcMJhsfUUL/V59Zkm+v2+dFJMTN5PN57eGvVCqdb+yBHn53AQ8/vPu4QiFuryPegh5+b6P38CPDzAwAcJrGN+bYq4PhgFwTD+kzygkhV8DSfSznx/n8lyp1KSvFjwj+q7WGPJ2vykNKpKLVxP0+CaqfQRuCJduD/ifbaMmHz65psa9PENmkvzIwzTTTo0tjz6iX9vAPOv9GnQbNZtPaPfwQB91lttf8Ypppt6S9sId/L/kDbE7vycNvQOTxnzo2KT93YlrSAQZCIaQXLDMvKaH/fKkmv/LUojxdqOg0gLQPqEZ5KBqUV09G5V3zKb0dgGzPuhL42BbxL55ckOVaQ3VsnRuEkLEgl8vpix5+d4DBIffwE2If9PB7m8vqvHtGAOwkXW2JPLZeka+v2lWRCBkU8NrH/BNyfTwk/+T6Gbl3Mi7JQNvDgJZUa7XkYqUun1kuyr99dkn+5RML8nC27bEmm3OxXNdbJfL1puqTOl8q9tKfAaaZ7obpvaVtZ9D5NW5p2xh0/jDNdDfjnradQeeXLWn/1NSUPpYPsyTd7CSNf6rcbOnZ0xsTYX38GJf2E3I1eibSN6GX+M+F/TKh/m9VCVWzDB0O/5JqRyu1phb/5ysNeaFYk0prQxKqTaFdkSusq7x7eL0sf3o+J3mVh91d3E76L8A0090wPbg0lvPbvqS/9zioQeYfGHUaA0R4Am1c0o+9+yi33m0Y3TDNdDe2pG1e0h+Pxy+v2tlt/hhsTQ/Eww8Wqw29h/bra2WpXX2LENIBzQ6B+V43HZcfOJSSN8/EZTYcuNIQFQ3VttCePrNUkA+fy8qH1PWxSzl5SLWtfKOp960TkeeLNfnySklPjuDUkG722p8xzXQ3TO8tbTuDzq9xS9vGoPOHaaa7Gfe07Qw6v2xJD8TDD5CGhxJnkN87GdP7+unlJ2RzcHQfLnj0F2oNqakGZJqpaV9oTy+W6vJorirnlLCdCgUk6PNJSF1eDuyHwIf3L+blLy7m9KqI3fRX3TDNdDdMDy5ND7/70hgg2urhxz5feviZ7sYraXr423g1PdA1wnqJbbYsj+crUugEJCOEbM7JREj+z5Oz8prJmKRDVwYgvaBtfWm5KP/bIxfk159d0kvZvQye/1vqWqnZJyIIIYQMB5xA0OsBI4QQ29GC36j/vVr1QS85/sOzWTldqrW/I4RsClbBTAX98r9dPyvvmEvKfLh9rAjothietJSFx/+rayX5T88vy396YUWeK9ak4cGxy9dVHjxdqOl86ZdftLS042Ftx2k+uM3aCryBeMbtnp+W1kZrK06f38v28pL+QbEhE7JWa8qxWFAOhIOSZKAxQrYEK/MnlejHcn34q7F/f6vo/JXmhmpjLblQqcvZcl3/fCLg10H9cLyfzdQ3NuSJfFX+6mJOnlWCH/EOCCHji+1L+hEErndJv5uB97vValkdtK/7HH5CvILt5/DzqM2t0YLfzAAY9pLG8BtB+4Lqu8ORoByPhdo3CCFbMh8J6Amyumo/F5WIhze/24NtQBpCN1tvyvPFqpyvNPUpGRDDfvWjmaCdAxkEK8Rk4p9cWJevZ8uypp4f7KR/Akwz3Q3Tw03j/H0Ifiyltg0Ifhv3g9ss+E3cBVNmu8mfbphmuptxTnthD/9e8gfYnB64h9+AY7KOxoLysmTE08HFCNkJCOIH4b9QacgFdUH8b7XfEOsAVmsNeTRXkecLVWmpH8W/4VdtDuLfpsCZpeaGPFWoyH85tazzZ/NcIYSMC+Vy2WrBTw+/e8Dgt98kDSFewCtB+0h/lB64ei/ToNIIpvVtJUIQWIsQ4pzj0aD87PFJuT4R1qdd9Gtfvem6UvpPFevyu2ez8k8fX5BvrJWsC5x5qdqQ+xeLkldjUEx0dD8/YJpppscvjcGYz2fv1r7e57UlbSuYzMCkRu/zMs207Wmb6fe8TF+dHpqHHyCyOJbh3pWJSsh35RcTQjYHnvlE0C/XxUKyVG3Kcq0pNbjutwGDGAh/ePy/s17R/20y4NcrBtwOtix8e70sv3N6Ta8eonefEHdQKpXo4XcRXvHw2zwJRUg/bN/Db1M/PAwmbrjhBj12NjOem7Gb+0jdnArLPzgxLW+cjknEzw6WECegUVaUeH9wuSh/enFdvrBUkJZuUf3p1/6ORoNyZzoqr5mKyb2TUZlXabcuYvxWtix/eiEnH7mw3vnmaobRf3XD+7w/6PvYbuNTLb3WaEpL3QcQWrh6wX+Payu6BYz5jN/pV5+D6t2L75qqT+kXDnQYz2dYXV2VfD4vtZp9J/dkMhlJpVJa9A8r/8Ao7+MzRMHi4qLejmETaAMor3Q6rcvMMMr87ccg7qM/CfgmdH/S7PQjpi+Bxc/g6kf3vw9rPiO/cOl/X1n0JaGAX49FTJ8Fuv/7fvD+eNy/cOGCnsizCTwXlvLPzc1JNBrtfHs145L/mzGq+xPXX3/91qOIPTIV8uszxn/xxjmZVZ/9W/xRhJCrKTVb8vFLOfnw+XXttd8pcTXQvz4ekrfMJeQe1Q5Pqs8plwX1y6kBzJ+eW9fHfZ6r2DU7TewDrzjIbT3w7pz5ba7ugTfehFjNU62341GY+2aQ3stm3wP9Mu96t2JwbtIYpIeDAf374GPHbzb3YM3PmssM7CEgNv+NzllbW7Na8CeTSR0EzhZQD+HZt1XwJxIJXW7dgt8NmL7B9B+mv7icVp/Rn9TVmKGh+h3z86D7Z7fD9AMA+dWvL4Hgx79k7sHDav4789+Q8ePixYvWCv7Z2dlNBT9pc9nDP0xwzviv3TIvd6QirhMbhOw3S7WmfGYxL//p1KqOUo9tMjsFq2veNB2XHzyUkpuTYd0Osc3GDSAOyAfOZOXjC/nON4TsP2bwfHnA3bkm1OWf2JBCuSq1el2L/t7L6eB70JgBuQlYZj6bC2kMniJqUI90Q/2JZiAPzOf2pdKdgf9WeMHDb5vgt9nDD8E/OTk5toIf+d/dP8DiwiQMLpSNEfOmP8H35rtRgPbf3W8gL03fgWXVuLr7Ckwe+tUYxMHORDJEvOrhJ22G7uEHYSUs4F38x9fNyG3pSOdbQogT0EDPlevyN5dy8j9eVIPnLc7o3woM8Q9Fg/Ld8yn53oMpuS7uDg/Hfz21Kn9xYV1OlewTDMS9YKCNwTeELKwZjJsBeS9mAD+OYNDUix6odyYEMIA3FoN7XLFQED+kJwW2gh5+d2HEJT38owd5j3gXaCu9/Uq//mNc+pTu/qO730C7QD5HlU3HY5ePGib7Az383mYkHn7M7iX8Pvn566flbbMJmQkzsAIhOwFB+85XGvLbSvB/fqUoi9XdBVOCV38y6JdXZKLyQ4dScvdkTE/IjSMQEi8qkf9rzy7JV9fKUmmOxntBSD8g4s1gHEKo26uGgbe5RuVlGwVmIA9rLgzmYXH0p097+NqTARh06dUBoaCElEUAUUAPv7tAHYbApId/+KAPMX2KmSzsXgHU3be4CdNvIL/1hf5C9RHqxuVAlxF1xSPh9tHD+qcJyhvlPyzQphFE1SZQ1/DemZ6etqof3g6swkN72slhXNrDjwxDhzJsC8/ijxxOy71Tsc6vJ4Q4BQPox/NV+b0za/IVJfrXEK3eQbvrZzMBn9yhRP9rVVt862xCDkfH7/xSrGTAioa/vpTTKxycPBct7aAsMB627gE50riGOTBzC8grM6jHgB42qFcD+NTN9neVSuXyBIltQDhC8GPAuV19cosFqOe2e/ghDpzkxyAtgnTW6w0pqTbR258YsYeftRXkgVktFFSCJYTPwfaKIVwon63yz2aLgIv5fEFyhUIntwaPrf0w6hPas55U8gipZEI9c0T8qg05qV+wI/HwG45EgvITRzPydw6nJBXgXn5CdgP2sn/0wrp8I6sG0nvwegcmRE7EwvL9B5Pyxpm4+qxeumPi7S83N+SpQkX+xRMLclqJfSwFJGTYINQUAl5h7z0G4xD65kIaL07iDC3+lRA2QgbWNqampvSS/nHwFg8K1HHbBf8oPfxqnK3jepSrNZFmW+yXyhXdp9govnYCRAjKAWLNXOgzINxwz0v4NlqysrYmyyurnW8I2Ry8e8xks1N8ZgAzCosI2wjA9UyBe3EJ2S2vm47Jm2cSciwadNTuNrNYMv+sEtW/eyYrf3p+XV4o1fSy+fZP7C+L1bp8brko51Wfoff9OXgeWtrdWiNKmw1V38olve8cggfL0XF2MQbn5meJM5CnWK4M8Wij2Ad4LtSLzeqVW63tOM2HvVrUj1ajKY1aVXLr63JxcUlWVtf0smqvi32AfEIfkcvldF+7srJyub/tniTcLp9tsFVVT+rqIsQJWCGDrTLASf0C/unp6fvwwcymDdtm66oBq98NjyIhZOeEfD593OWGalLY2w6ctr9+FqsEnipUdVC8k4mw/rf3+/jMp9Xf81svrslKvaknIJw8By3tbiwGlRClGHQuq0Hnei6vB6HmJUnIZsTjcb0n2SwldVLf3GDRJhDcyzZRiueDRxnBvbq9yMOy2M6yls3K4vKK/sxtQJuD/hb1DatKkFfIQ7P8f7t8tsGaZ8dkByHbMZNJS1S9ezAl5qR+gcuCf1TU1YsEYuJAJCDzkaAEOn8IIcQZaDE4Zg9tZ63ekovVhjT2KE4wDMGRf4/kKrJea6m2Gdi3IzQx8QDv/hfUtV0EcEJ2Cwbf8LRl1YB8fX1dDzIx6KLQJ06B2Ldx76hXBP8wQP8B0YY+BZOIEHEU+jsD9Q95iAvbrBKRsBY2NoM6gncQBT/ZCvRhWMYfTyTEv4Pl/GDkgh+NtqY6xGKzJa+ZiivhQsFPyE7BpFlcDVgQfO9RJdLRnnYSrbMfOAlgpdaQRSX80SwzSvDD2z9Kyupv+PxSUf7qUk4u7fIkAkI2Q0eLVnW7oMQMIsdj+SgGWTYvOyfDIxaLUfC7iGELfjOJaIQ+xBv7ld2BfEP9qzfqOq6K+NrBQY230jbo4SdOuCz44wm9AmYnjFzwg6rq/7L1ptycDMuUEhVhRPQlhOwITJbNhgNSaLS9/Ihqv1ffJIYmq0rwY+tNa2ND4qptpgI+fQTXKF6zzxZqcv9iXr68WrJ+Rp+MFuM1KqsBOZbtQ9AgTY8+2S0QjhT87mGYgt8INkwkIu/o1d87Zpl/pdrup1F+EP24bAPbyMzkMyGbgTaA/guXKwQ/hlcYzMObd308JDMh70XkJGQQBFWzuSkZlueLNbkwwGj2S7WGnCs3JNfA8v6gpJXoxxaCYTZTrFD42EJevrhcUr+fgyUyGDBQNMsldXCotaxUKfTJADBniu904DXuUPDvjG7Pvm3nnI8D6KshiFEfIfbR3mwT/Ubw29bmyGBBvcdJI92xY5yyby2mol4on1/K68jgEP6EkJ2DJcpYev/uA0m5MxPtfDsYLlTq+gjAf/PsspytNPRWnGHRVP/2aq0hD66U5NlitfMtIXvDeIgQARpR9zEg5xJbMihs9TaSnYF+BSd7wMNPhgfyF/mM/LYNvJc4CU22A5OWWNK/m/eO/i+Md32UFvUa4Ti+sspj+gjZC2hVd6Yj8rqpuFwbCzlqf06s+iAlfR5+VX792SV9pOZezv3fCvyeD57PyaliTTY6mwec/p20tP0svG4YGC4sLOi9+lxiSwZN9yDdab10m7UNp8/txKL8IUCxjJ9LsUcD8hn5nVX5HthoBwEHTsrLDZaQ7YBn3wh+p/UKdl+W9BvwosS+44PhgNyYjEiw84cRQnYG4mBgT3+ltSGP5Sp6Qm0Qc8X4N+rqf5ZrTVmsNlSnITIdCkg8MDivFlb4YEvCB86syblKQxpc8UP2AAbh8ARB7EPoY6kkvfpkGNgYtA/jMrQXLunfGkwgop9BNH7GAhktqJ86kJ8aj0xo8eP+9oetIHhXcWKabAW2s6TTad1/GTHvlH3z8Bt7rlyXh9cr8mSey3gJ2QsnYkF5/XRcbk1FJIggew7anxOLYUy+0ZQHVkvy0Qs5+cJKUVbrTR3UbxAgSOBX1L99RvUFlWbL8d9FS9ttAbw/ECoYhMMLhAEUB+JkmDitn261tuH0ubeyEGXoWzCpSLE/epDfyPfV7Lrq70u633dSbuNsAesR2QrUFXj2XenhN2A5r9InclcmKoERRQMnxDYQVC/q96lrQr69XpGyaleDfH3A8Y6j8hbUNRcO6AsTC4gjsFsa6gX3VKEmf3Q2q08aoHOf7AYMlOCNNGIfwY/o1SfDxsagfWhL9PBvDvLHBADFCiKyf2DiBXUUZYl9zUbcuBGsFuFqNLIVEPlYUYagfbup62qs3vYE7ucFEfGdXFWeLda0ACCE7A6cePGWmYSciKlBjRL//drbXq6mTMiTSqD/+nPL8lC2LAWE1t8D2CbwWL4ijxWqqu23B2S8eO30wsAPA3AE56NXn4wK423pVydtuGzEPFfvszq9zB5yXGT/QX+PiRcI5n7l5ZYL7zCKfbIVeNdA8OO9068ObXf5p6am9t3Dj6EZjhNbrzfl1ZNxvReZELJz0HJwJQM+ea5YlSUlqAcNtBT23T9TrOmJhfmOp383fH65JH96LqtXDRCyU1DvSqWirK6taY8k9z+SUWI8/Lv1Fo8jmCxDO6KH/6UgPxCkD/utKc7GB9RXXChTt662wQQSt4eQrcAqlng8rvsw9GU7ZSw8/Lhw3jeWIZ/iMX2E7ImQEkH3TEbl1VNxORJtdwyDvNT/6EB+zynB/xcXc/LVtfKu2iwC9T28XpZTZQQD7P+7ePHqd2EbScjva0drXm+ffW2bOCHjT7+6adNlI+a5ep91q8uPlRyyIevZLPuaMQSTL9hmgfeBKZt+5TjOF6DYJ1uBeoIJrT15+PEBFW0/Lc7hhm8mqQZxx6NBfbY4sYeaEoSr9Zb2OJ+v1HWAtueLdX3k2xP5irpgq/K0SuMc9hdLdX1EGzy/uUZTSs2WFpk4ycEcw0L6AzEUw3J+9fmiyuvTKi8RYM9JO9yJVZ/0knyULdrtgXBADYxUx9L+M7blM0sF+fxyUUfmd/L7aGlhAbw5VTXA00Gb6G0j+wSi9MPLbwZgTurvuFuA9gVha9tRc3hGLIlFmWHg7CQ/IPZbjXYw0NW1rNQp9scSlBXEvvHyw25VruNkfWo0lS/Aw8+jHcnmhEJBmUynVEe2u/fNxMmTJ8dmSglCDqLh/zo5K6+dikpEiQjiTiAwC42WlJQYxHaNlVpTXijVZFGJO8RsWKo2tfhfqTVkTQn6anNDMGRHiYf9EzIZ8GvheigalGtiQb1sfC4S0OfMT4f8ElbCMqauRMCnf468FEyUfOj8uvzB2azO72GRCvrl1ZMx+YcnJuVkIqSDB24FJvfW6k351WeX5fMrJcmpz4Q4AS8uI0ay2axeAkmxT/aL6elpSaVSeqmlLaCNQegvLi7qdmYTmJhJJpOSyWS08HeCb0ONY1Q+XFxc0oIS+UPGE4gaiP3Z2Vk9GYfyHncwWgpMbMiZcxckXyy2vySkB9TtVCIhRw8flLoa8uymFxobDz8sHiCvBv9TStxB+CMKOHEnOA8e+7NxjNsHzmWV6FzTHt2vrZV00Dds3VisN3R5I1ib8UDDIo1j4PLNllyo1PXPf22tqL3BH1vIy5fXynK6WNMrQo7FgrveP247YfWyw8QIJlMezVW2bX+7tfDwI/7GuuqF7p2KSWSb8sCpHIjK//nVkiyo8nX6e2hpIfbhaVteXtaiBN8Tsl+Yc/jp4XcHeMadevjzhaKsrK7pyUUy/mACGGWH8sW1Xfnut0WLq9TqUlDvNdvaGxkcWLESVv1WJBZ3VK/6Wf/MzIwO2ofEOFj1QZZqDTkcCcpt6Uj7O+IK8o2WfGu9In98YV3++4ur8rdKoD+thPlSram9/Or/9TLwq4boW9QDA37e/HcQ+fnGht4WgN/12eWCvFiuay9/Otj2/JMrpAJ+vXJCH9OnCsDk/Wbtb7fWbNnAhM3BSEB7/ftRVz93odKQ/3F6Tc6qcjO+fae/h9a7FiJE79nPZrmHlowFvcfyOanHbrAQTZhYs13wb5cPyAP0OdgfjkEzcQd4V0TDIUnEYnrcuV0577e1tb2RwYH+CsFGMcnstF712rE4h7+XkhKOcSVU4OGHeCDjC7zxK/WmfHKhIB9fyGsB/s1sRR+xuKYEIM6Cx1GLg3pV4t/Bv4d/d13VE+zxX6i2tws8W6jJYq2pg9ZFAz6939/rYPUDXnjLKl8QEwHlNQwwqVBptmSp1tLxN3A8YFK14V6wteDzK0X5nLoK6ucJcQIGcDh2z0QyJmQcMHv4dxPxfZzxiuDfDIh7c9Y+jnvjtiF3gfLz+fz6Crhguw0msNHeOJFNNgMTy+Z9s1vGUvBDk8BjiL3cd6TUy1SJFkq38QLlc0mJNywV10vtFwvy4GpJR27HiQtD0pUvAb8Hv08HAVSi/3y5ofeHY9IIYjfu93k+yB9OuURbejhb0cEPhzV0wb+7qvIe2zmw2uJgOKB+75U9dJioQZDGD55fb3v3R1VJiGtB020HNCrowTfP2CfjBAW/u3Ai+NG/4LnX19f1tgZMNhL3oSdpVHmjrI2Hc1zBJDbqGgU/2Qz0W3jfQPjvlsuj8d5B1H6nz5Vr8u31MoXBmIGiKCvReKpU13vyf/PFVfn3L6zIt7IlHaTPMOj64CSN3/9IriK/dyYr/+XUqvzVxbw+Kx5B4bDU3KvA4353Jiq3pSKXve6DyO9uutNfXSvJJxfy8rgS991tF4EbH8tX5RtrZan2ePcH+fsB0+5P6yGaGrQ1alV9HBbPKCbjym7qdzfjnrYd87ywEF2FQuGqI96I+8CkDUQ0Vmr0rtDYaf0fdhp/X+93hHSDODEmCOVu69tlD3/vDNh+pzHcw/8F1QPekgzrZdpk/4GX9ulCTX7n9Jr85aW89qqjKg26/PeaziqR/51cWZ5UAhPe5uMeD+5nTjyACL9UaZ97382g0zhqD2Xw6qmYjquA34+VIB+5kNPbMAb9+5i2Lx1QX9XVYO3cpUWpUuyTMQQeF3heej38g6j/3Yw67TUPv3l+89wrKysvEYnEfaAMUYcTicRlsQR22h6GncZkNraOcDUJ2Qy8a0w93m19G8sl/QYEGcOxba+djmnPJM9f31+w2uKPz6/L755Z057a9QY8552bYwhe1/DuY4ICKxLSAZ9kQgFP7u3HqfzpoE9eLNZkoda8ajXGMMC/jqNDKs0NuTUV0UcwfmqpIF9aLQ4tjgCxi0KpKGvZrBoIMWAWGU82E/xux2uCH5g4IQwKag94b+Ay5d0rhMYB/H3YqkbBT7YC75p4PL6nOqwFv/kHxs22lEjBfuCYepkeiQS1p5aMHky8fGe9Ih9fLMgn1fW8Es/YC64KSt93Wp77YREVPqdE56ISnGtK5OIOlrhjb7+XQJZghQP21F9SefG8Ev5O8m+3FvqsrnJ7Rf2upMrvx3JV+aaqQ6dV3XHy39N622IAhGW1hUKRnjYytmAQBjHR7XWxwUJ42C74g51gblh9FlDvRhMnhEFB7UMfadaZmNuq3u+HBdh6gHceBT/pB+otvPuI0u+0XvWzY+3hB9h7jQjjNybCMq9EP89cHx3wqWGvNaLuf3yhIJ9dKsjpcn2svfr9QB1CRPiLlbpklehHELuD4aBeam4ag1eYDAZktdaQF5TwzjeG+3JpqIqSV/mOIIpP5Wt6hYieKCJkCyDwMfCG4KenjYwzNnr44XH0gofflBmet1atyFp2Xco8fs9KUJ9R7maSZ5xAfUNbg+Dn5Dbph4nQjzq8F7Sbs99MwLhYLP+FOHlovSznlGAjowHvPKyueKpQkz+5kJP7ldi/UG0LRCflNo4239yQB1aK8ifnc/KVtZI+1q/psZd7zD+hl9jfMxnVp18Ap/m3G4vTHDBh9Gi+oo9vNN/T0vZaeNpko6WDLGEARE8bcQNO67fbrM3gEf0+nxrntKRWr8viyqqUePyelZgl87gwgey0/o/KAnr2yVZgospsQXJar/rZsffwG3DWOo75glghw6emOskzpbr862eX5OFseeh7vkcF5D2W9z+kRChWjcyqOhXx2KqRVMAvdVW+X1wu6ij63pryIOMKWqFfDcDPXbhIsU9cAT387gKDXpRXOhaVcMAndSUCF5aX9ZJqin27QflCOO3lWLNhgL8L9Q9tjXWQ9AMrkrq3Ie2WiRtvvNEV430EWnvXgYT8+JGM3J7a27IGsjXYs/9tJfJ/9+y6fHu9IsWmfZ5wLOtHXIi/f2JS3jgdl5mQd+JDoCwfz1flN19ckwfWylLhMnsyBtTU4BtnX2fVxYEPcQMzMzOSSqXGcqnwboHgh/hYWFjQQsQ2MDkTCiKAm0/1M02p1RvsbzwAyj2TyeirN2DjfgLv/sWLF3XQPtZD0o/p6Wn9ntnrZJVrPPwQKTiab1YJM3r5h8ujuar89aW8fGmlqPe+27jsHXEIcGzcer0lqYBPjsdCnokPgaXTEb9PMuq5H81V9OoNr21tIOMFBEahWNSCn8sbiVtAECV4jLuP/HI7EPy2Bu0DeL5Goyn1RkMa6jmRJt4Aor97efQ4AJGfz+f1dgPWRdKP6UxaImGlezvL83eLGvtfCVxmPo9r+mKlIU8Wa7Jaw3FwbBjD4Il8VT69WJAHVyH2N646Y7+3PGxIf0cJ3k8vFeWhbFl/5xVwROErJ2PyykxMn1oA+uUP00wPO41BDrwbDNJH3Ea/+mxLmhCbwHsGE1jYyw966/t+punZJ5uB+oGJKn+gfcIELvP9TtOu8fADRPieUI32RCwkh6JBCXQehOwdTKAgqN0fnM3KJ5UAvlDxxsAbnn6cAoFl7a/IRHXkfh08zCOE1KM+Xajpc/L5yiH7AfbrQ+zDo0iImzAefu7hJ2T8Qd1GW8V55uMCVtNwZRvZDKxGiSeSyu5929hlD79brkvVpty/WFQCjR7+QVJT2fmFlaJ8LVuRi0r89ct7Wy8cHfdIviofPr8uZQ/VK0xuvGEmLjclwpIOYU9j//zhxWuYF4QFPPxczkjcRr/6bMtFiG1AVGMSy6wk61fv9+PCBBvff6QX1A0zodxbZ3ZzucrDD2qqYZQaLXnjTExHG/erhyB7o97akHPluvzH51fkuWJNp71GWYl+eLlvSoZlMujX8SK8AJ4y6vfpZ39elT0howIDHAQFw5n7ZpklIW6Ce/gJcRcQPmivaLf4vJ+g1/BLS9ayDFRLXgrqKaLz4z0ziFVkrvPwN5VEWVfi7OliXfKWHBW33yA2wt8s5OV5Jfor6mXfL99tv+obIudVPvzFxby2XgKTHHekI3I4EuybN7x4DfrCGdgBNdbKK7GPJf30bhA30q9u23IRYiPw7pvTJ/rV+1FeLdmQutIzfPuRzUCQyUF5+H1moOUmW21tyJdXirJS556XvYK4CM8Ua/LJhYIUGy1pdbz7TsrBNottDV9aKcnj+YqseahuIYDfzUr036ZEv5N8oqXdq8WgC8v4MfBioD7nYMYfL39zYX+fOVsaHitjccErgAtnxe/G4jLn/+Iy/z5+nxmE4O/BQMKrOK3vbrWE2AY86ZhkxnvHeNWdtodBW4y3q3VG5yf9wbsV71zzjt2uPm1nXXMOfzdYxj8XDsgv3zQrr5qMcln/HnimUJM/v5ST3z2T7XzjHlDqOEoPwRuxAh/B9rDopaEqNyp1U3Wm8NwjvRPeO5+UHzqUkrsz0c439rNUa8pnlgryH15YlRwmfnaYZ4Q4BS8fLOFfWVnRy4bNy4i0uTwb3xHT6NfwGW0SAh+fDeZ4KXzX/T0+G6/AbkG5dC8zxWdcJrgULC7zfffgwqTNZSs8h5/0w7Th7va32WfQm+6luw31tqvuz8QZ6BtnZ2d18L79PKIP/SfaGNqa6VcJMaCeHj1ypC36u97vu2Xi5MmTG+hs0GG4zf7qzfPyttm4xP327J8bNX90bl1+S4n9C+Wa43wfFxtQKv9wOCgHwgGJ+CckpurBdMivtyhA5EO4XqqogYsSs07+PWMPRUPyc8cy8uNH0p1c8gbPFmvye2fW5OOLBR0nw2l+0dLuxEIMYt/+4uJip+YRA/IIYh0edXja4VWPqJd9NBgQRNhQ2bdt/u6HRZnCY4bLHH1lvGhI476NTE9PSzqd1qLBST65wQKUHdonBf/OQB6ayTbUCVz4DIw1k3PmZ2Fx4f5m5WK80eYybav7Is5BvieTSZmcnNR97Gb5PmyLcsNKNwp+0o+geu+fPHFCmhM+UULdcb3azLrSw2/4vvmkvO9wWl6RjnS+ITsBZ9D/oRL89y8UpK4qxLiC6ZyoEvTXxsPyskRIXpYMy/FYSJLqOwTXC6qKrL1g6sK+YDwLHgeiHwEIsVR/vd7UAQnPluvyfKkm314vq3tqAN3+FVeBf++dBxLyE0rw357yTt3KN5qqTlTlnz+5IEvVJo/pI0MBA5xsNqtFP2kPPk1gHlh4i/FyNsKg28M/zmBQ0X1BmMCivPP5vJXikR5+b6AHy+qCKIe3DUIebRJplH00pMpf3TeH/Jifx2Xo93mz+72YNtX9uTsNsQjxaCbbcOGz+RlyNchrCP25uTnd7+4XxsOPY/lGMSmKiSJbJxZQplu1IbeBZ0Ffc+Tw4fZkYOf7veBqwY8l1z95NCNvnx2fMzXdxIfP5+TPLubkUSX8x5FD4YAW9tfHg1rkI3r+rPpuLuSXtPqMY+WcgAqOuA/LtYbklMpfVeL/dKmu9+o/qgQugvQhlkE3tyqh/4MHU/Ijh1Odb+ynqQYHi0ro/5vnluWr2bKs1jjjTAYLBhsY3EDwY0DqVSAWIBTM/nh8xmWEhE1UKhVZXV3Vot82KPjtAoNs0zaNdz6Mthnw64DRRuTDGoGBdABpde3XpBzKDIIR/asR/7gg8ND+YEchKN0Eyu3ooYMSjcX3zbmBcjMTNaOYnME2OtQH2yaC0A4zmYyexLEJ1FFsO8HzDQJXC/7DkYD83PFJ+dHD3lp6vVfwUsoq4fvvX1iVzy4Vxir4YcTv04L+pkRITibCcp0S/Deoz9fHQ52fGAzw/D9RqMkj60r0K+H/RL4qp0q1yzP000G/vH0uIb94/bSE1d9kz7zh1lSaLfnyWll+48U1eVzlCffyk0ECb+/a2pqV4s8JeHFj1t4IfVwYpAzqhT6OwNsIwW/jig4KfneDdmeEvRbunc9G8OMKh5TgV981XPYqhMBHOULgNSD84fnvbAWwTfDtlsPzBySeTMqEb+9HnrmBCxcuSKFQsK78MQF36NAhLY7J5vjVC8tV5/B3g2P5blKi8BWZqA7cRpyBJe6PKjGHo/heLI+Hlw3lNxkKyA3xoLxhOi5/7/ikvFFZHBk3FRp8Z4xAj/PhgNyejsi1sZBeLbBSa0pJKX5Mf8Djj5gA90zFJBnwi8PFBK4HcRGuUfmB1Q/nyg2ptDgwIIMBS9NxDB9EhK3LCjcDwgJCIqLEfVoJxFQ6fTlglM1iH6CsMdED4W8bJs4CytYmIBZtPocf5RVSoj4cCasyjOtyxMQN9nUnEgk9EWeW7k9M+Fy5vc1MZuBZUom4ep6gEnrqe3WPE/lt/IGgBDqTO14AE+1Y7WEbqOtou2izZHNcv3YQ0cWxL5s4B97th7PlsTp6bkaJ+u+dT8gv3TQn/+TaaTkaDer9+aPgunhIfvJIWv71yw7olQWRzu9db7T0CoBxjm8wLN46k5A7UnYtjyL7BzRtSF01JfpsHHBsBwRGQg26rz16RKYmJzkwIWSfgDcQov7Q/AHVHo/qaO1YDgxhbNvEjQGrE0KRqByYm9N9EPoiW591J2C1g9cmn4l3cb3gh5cfnlniHAjYx/JVHchuv8ES/rfOJuSfn5xRojsjRyOYUe/cHCEhNQi4Rgn/f3XTnD6W72AkKOVmSy5WG9LwoJf7jnRE7kxHZTrkjZlvMlxw3vBaoaiXlHptOSmEBKJBT0/PSAPRdjvfE0JGCzyBxpsfVO3Sa7Ht0fegD0JfhIB1mPiwfYXRVmDyGaKfEC+gBb9p8G60EK3jtAd93Cmrgffpcl1OFWv6M3CSz8Ow80pUv/dAQn7sSFrunYwpkY3j9fZnDgpOfXj24e3HGfzvmI3rwIBPF9QLwYMe/mTAJ3dlovLaqajj8qSl3cxC5OcLBal7bHAFcQHvoVluqHsSB/llk7Udp/ngNmsjeDYs34Z32+fzC4ZA2+WDTdb0P4hRgC1F6JvMsZJexATMg5ffSf7ZYG3F6fN72bp6Dz+IKoF4MBzQ4oRsD6LUP5KrymeWCnq/+n4ASQ9v+ltm4vK980m5IxXR++XHhTlVnyB4kT8I5PeOucRY/X2jIq6eGZH7UV+wl5/7/shugNjHwAqB27ziTcHLFcc9YTCNgbVNQd12Cvfwuwu0V1v38KNdYuINbdPrS9qRFxD6OOsbsXtqqqy9tvoKz4v6YPN2jm64h9/buN7Dv1htyLkKl+Q4pdhoyZlyXQemc5K/g7YI3HUoGpR3zsbb59ynIxIc0V79nYC/C2fxQ/zjFdhZDOEp0kGfDoqJ4y+DqoiclC8tba/FoApiD2LfCwNKPDcGHljG3y32t8snW63tOM0Ht1lbcfr8XrCIZxCPxmR2ekrSSjAFA/YHEe3FTHBtlU82WVtx+vxetq738CN66sGwX951INn+gmwJzp//84t5OV+pj3ypOupdWP3P3z0+Kd87n5IjSviPMxH1Mjym/sZYwKej+HvxJIigyoOof0IeWC3rmAaE7BR4FHAkG0S/FwQ/PL7T09Na7DMwFj38bsMIIHr4vYHukdV7fiqZkGqtrj39KH+vgHqAOuEF7zA9/N7Gh4xy8wVPddMzp6Tvnarq3XGyAbrzfvk5zAvH2/3j66blu2biMjuEo/YGDZb135gIy0zQL0H193uRhMqDm5MRffRlRuVDv3LlxWurC4NHHMXnhUEkxB8Cghmx3y8/vHYBY22k93ltuWyl37N6/VK5InV1xTtHEnoJTEhi9Vm/fLHxspV+z8rr6ss/PT3tag8/HEZHogG9HxweWPX/ZAteKNbkzy7mpNba0Hk3KnDm/TtmE/Le+ZQcjgRGduTeXsCfiO0GOLPfq/VK54G6sJ//qUJVlqrcPkOcA5FfqVS0h992IPAR9RqC36tBsPrhBQ8/lkbbAjz8KDObPfxe2bO9E1DuqMcoe5S7V7z8eGZsu0Jbth3bPfxejpXjBNd7+HHVlXBdrTfbS5PIpmAJf6nZkmJTiX3pn5fDuFJBv9ySisj3HUzJEZeIfXIFHFl472RUblNlOBMO9i1jXrz6XWbw6IWl/BAR8OxDAPbLC69ewFgb6X1eWy5b6fesvNoXJiqx3cEL4teAd1Sr1dSBC/vliW2XrfR7Vl5XXz4zEHOzhbd6TQl+RhHfmooS+qVO9Dkn+ToIi4NgTsRC8lotGMNjGaCPbA2KDNsbXq3K8GQsoNNOy5/W2xbeBBs9u70Y7z7EPnCaP16ztuL0+d1mbcXp83vRog+D6Ldp1cpWYCVDs96QiY0WMkB/5ySf3Gxtxenze9VqDz+wxRJnOM3PvVrsfb83E5F3HUjoNHEv8PLfnIoIFis7LX9ab1vsjcSSfpvBwBjLCeEV83pE/u2srTh9frdZW3H6/F60mLzEaiWIfvO97TSU6M+VKpdXCW+VPzZYW3H6/F61Vnj4uy3ZnGKzJdk6whw6z8+92u+aTchrpmI6YB9xNyhDePlRpk7Ln9a7NqDeMRvNhtVn7+NFGlAD5NnJtERCIUf54mVrK06f323WVpw+v1etWbHkFS8/nhtL+7fLF1usrTh9fq9aevg9BPbORzpL6p3m526tX70opkN+ee1UVG5KhMTf/pq4GJThy5JhXaYzYSztb+8LArS0vbZSrUmtbvfZ+xgYxxCRPxjSe1+c5IuXra04fX63WVtx+vxetWYvP1Ysme9sBu8oCH7DdvnjdmsrTp/fq/by9N12gzK33ydbM+j8x+TCrcmIEvthmQzSu28LKEuUKcq2O/jioOtPL7zvvvvlalWf6WwzoVBQJtMpaSFayRZZNI7l081+33c7456/e71vO+Oe/6O+D4EAsY8TDbzg5cc+/q1Woo1b+fSy1/u2M+75P6r7l1uymQHYDLffJ6KDG1Y6Qft6GWT+w/Ob9E/IW2diMhfm8VS2gTJF2aKMUdZgkPWnH7zvvvsYQHV7TWxD73UNhSUZj+kVTVsxjuXTzX7fdzvjnr97vW87457/+3Ef33nl+EIIoq1Ok9mP/O9m2PdtZ9zzf1T3vbFBh2hwlnpmBN52bBs4Hg3Km2biMhuid982UKYoW5Sx2SJCSC+I0G/z/n14v0JqQFxDcOfOd4QQYgMQCdjHj+X9hBD3Y4XgD6uOCSKE2mNrov4JSQWGX+T4HTh3n+ft20tc1aX3H80o0c/BALkatPqQ6mZalnv4Ifixz5UQQmwDgh/L+uHh386D6HbwnsLxsdstjSbEzVgh+EN+n95bbJYXk/74Vf5EO8H0hplXk0Gf3MEz960GkzmvSEfklmRE1SeKfnKFlho0las1abSuRD22DQyCIfjNMXyEEGIbEPo4l9/2fg7vKZsnpwkBrhf8EK7BiQ29tJjycnvC/gmZxeRIJz1oUB6YfLkZgn+Ikwpkf0E5Y+LoddMxORmn6CFXU6pU1QCq1UnZhxH7Xjm2ihDiTdDXeWFZP0Q/gvfRy09sxfXn8PulJRE/B11OwfaHuYgaqHZ2nTrNZ6c2poriYCQgR9Tv8FPvWw/O5b8rE5VkZ6uI03pCa6/Fhf37GDzZCrxeGAhvlQ+0L7W24vT53WZtxenz025cXtZvO3hWvLdg++WDTdZWnD6/V63P7M1xq00EApIKMDCcUyJKhR8I+cXfWW7vNJ+d2uviYbkjzX2tXgFC//ZUWO5Roh84rSe09lq8XLwg+DEQdpIftFesrTh9frdZW3H6/LQT2rvvlcB9xsPvJF/cbG3F6fN71brew4/gYaOIPG8LWG7/ikxEzCJsp/ns1CYDEzId5IoLL3FjIiz3qjqFQG2qIujvnNYXWvssLgRAsnFPJF6cEPpmOf9W+UD7UmsrTp/fbdZWnD4/7YYW+14I3NeNk3xxs7UVp8/vVet6D/+BcEBOxLiH2CmI1H8kGpRowKf3YTvNZ6c2HfTrvd3EOyBI48uSEbkDJzN0ttc4rS+0dlmcR49gnS0l9s1Lxja6B8Db5Qft1dZWnD6/26ytOH1+2nYfhz4Pk5y2Qw+/u3H6/F61/unp6fv0J5dymxIZr5uKyqEIRb8TUPBN1aF9da0s2XpD6q3BDspfkY7Ka6dikuKqC8+AiaOA6k8QpPGhbFkqqk5ZqvXINmyoAVOjXpe17LqO1m8b8OrHYjF9HJ8X9rUOAqz0KJfLetWHbaAuYHuHTcEbIXhQZsViUeqqLdsExj+IvRGJRNh+d0CjocaKqi7YVh+6Qd1AvUD9sDUYaz6f19vtbANll0wmPTEptRe0hx8XMJ/dlMb+/ekwjwVzCoSZjqKfjEg6GHhJfu41nQj4tJefeIs51QbfOpuQ6xNhiXUGUv3qB9N2pyHyi5VqJySofeAZjdjv9/xMvzRtO73Pa0vaVjZ7XqY3T6O/88I+/u64M93Pb1PaVjZ7XqavpF3v4b9nMqY9/IzU7xwMxkvNljyRr8pyrdH+ckC8ZjIqr5+Od1LES8DTjy0jzxVrslLjmbZeBJ7BSqUipVLJyiX98PxkMpmrAvaRrfGCh98mbzHaLYSPzR5+rtDZGagP8Ayjb7cV1A14+G1rz93Qw+9tXuLh77XjfH8mFNB7+JP0KO+IkMq+NyhRfigSkIBv8OVDvImpVzclwnrlzWb1o9vyvl33MTC0fdmnWfLZ7/l7Le+3P9vMds/v1vu20v2c5jLpXsv77QsC2Ct7+A3dz2/SvdaN922l9znNs/f73liv3Xe1h/+mREheMxWTk/FQ5xviBBR8RAn9U6WaXKw0ZL0+OG8sjmfDqgviPUy9QoyIxWpTzpbtFX6kP9jrCc+grV4EiP1UKmXtHs9hQA+/u6CHn/SCfEPfDg+xzWBSA3XD1u0Ltnv40bbJ5rh61HK9EvqHuH9/17xSifOTCTYQMljuUvXqznREpnhag+eAUMDA0EYg8jEQxOCCEEK8Avo89H+2T5Lg/WXjVjRCgKsF/w2JsByOcs/GbrklGZGX6eXXg6sGLYGHt5MgnmRWCf1bUmG5KR7ufEO8AgZLtgp+DHq9ELiKEEJ6Qf8Hwc8JT0LciWsFP7qco0rsz9CLuGuSSujfno7I3ZPRzjd7p9xqSb7BgG1e52XJsLx6KqrbKfEOZg+/rQH7sGSQA15CCCGEuInLgr93gDbOaZz3fYsSFIP0THsVBFh7tRL8wYmNq8TZbsun0GhJtn4l8AnxJpiIQxu9NRXR7XW39cnA9PinsVcbl610C/5B5Fc3tqdtZ9D5NW5p2xh0/nghbbY0eYFB5Fc345a2nUHnly3py4q512sxzumgb0LuSEckQ8G/ZzJBnxZlb5tNSljlq2G35ZNXgn9lwEf9EfcBkX9dPCQ/cDCpj+rbbX0yMD3+abxUbBb8eEYz4N1N/nTjtbTtDDq/xi1tG4POHy+kcdm+pB/vL7zHnORHN25L286g88uWtOs8/Pi7Y0pA3DsZk2kG7NszAZWhJ2Ih+e4DCW0j/naV2G355CD46eEniqlQQF4zFZeXJ8MSV222m93WLwPT45fGcn5ctuLzTUg42A7aN4j86sb2tO0MOr/GLW0bg84fL6TR79nu4TdB+3aTP92Me9p2Bp1ftqRd5+EPK4vz4+9IhyVND/9AQD7ePRmTN07HdMA1ZPVuyydXb8pylR5+gskkLO33ydtnE3IwEtT1yrDb+mVgevzStgt+/4RPQgHVP6rPg8ivbmxP286g82vc0rYx6PzxQhoXlvV7gd3kTzfjnradQeeXLWnXncN/UIn9t88m5e5MVEJdS9DJ3oA4O5kIy3fWy3KuXNdnqe+GqCqTY9GQ3DPAQIDEvaCJ4iSNh7JlfS7/busVGX8QrM/W89bxwgyFwxKNJ4Q1eGfg1IZKpWJlvcCZ3TiH3yYhBG8Qljbbeg4/yisSifAc/h2CyVy05VKp9BIPog2gbqBOJBIJa1cyFAoFa8/hR7kFgzy1bSt8yCg3XVgmfBeCzFHsDxRVESQT9MtPHs3IG2fiffPeyXWp1pSnilVZqzelRXHneUy9eveBpNyZjvatM7zsuDAItNXDD0Fn9q/y2vllK/2e1ZbLZvo9L6/tL6/Q79ltuGym3/PyuvpylYd/Rol9HCH3PUo8YE8wHoAMBuQk5lCwvN+v8hVL8+Hp3ynw4OK4P6wWOBAO6H+LeJfL9UqJ/qVqQ54tVKXa4kSQjcBzAE+ubV5BAI8PvIKxWKzzDXEKPfzugh5+0g96+N0PPfzexlUe/kPRoNycjMhUyK89h2TwpJQw05Mq8yntkQ35fX3LYqsLx/I9kqtIjcKOdJgPB+SWVERuVO23X53h5f4L2DgQBOZIqn7PzWv7y1b6Pastl830e15eW1/oA22a2NqKfs9vw2Uz/Z6X19WXazz8OObr7kxE3jITl/kIo/MPE3jo55RAgz1dqkux2ZL6DsQ7Bv14LbxelRX29KOiEQJPf6EzGYSVIJwOsgt4ceH9sfFoPngO4BWEd5DsDHr43QU9/KQfxsOPekEPvzuhh9/b6LeUEWTjbGeVAIXHGefvk+EzE/LLuw4k5eeOZ+SaeOiqyNTb2XxzQ4m6qixUG/Tyk8tcGwvJq6djcigS1OLfaX2idYfFINDmKP1O84G2v7UVp8/vNms7TvOBtm295OEHTvPFbdZWnD6/l61rPPzvO5yWt8wmZFoJUTIa0LUfioYk4fdJrtmS8zvY0w9BF1P/czwe0kHbCAEB1emkAn4dtZ97+e0CHlxE6bdR9IdCIXr4d4nNHn7EdECdsMlbbCbu6OEn3aBeoC3DS2y7h99WT7HtHn68p8nmjL2HH0HfZsJBuTUVkSMRLtcYJYiTkAr45HXTMfmxw2l573xKpkMBCXRmebcqt3KzJZ9ZLsqpYo3CjlxmMujXRza+LBGWZGciaKt6ROsea7OHH89oBMJ2+UDb39pIt9fTaT64xdqO03ygvdraDPp4p/ngVmsrTp/fy3bsPfwR34Tet/9dswnu3d8nEtjTHwnqbRU4rx/7r7Gvf6vl+riDo/nw3xxU/y22CBCCCbyI3yfY5f1CsSarqo4QO8D+fVw2Ao8g9mtzj+DOsdnDH4/HtVfJtj389PCTXrzg4Udbxqod7uF3Fyg7evi3Z6zfUhCXEJrfdzAphyj29xUc13dXOiI/cywjP3goJa9Qn+dCAR1McSu+sFyUr62VJNegsCNtIqrXeddcQh/dGFPin7ifdkyGTsJCMKDw0v5V4gwIHxvFDyGEELsY6xFMJhiQO1MReXkyor3MZH8JqlE9Aq79yOG0/OINs3oiBtH84bXdbKz/QqkmD66W5Nvr9nl3yO7AVhHEdXjdVExuTHJPtA1gOtZH8UM8RveSfkIIIWRcGes31XzYL+8+kJCI32LXkUs5Gg3K+49Nyv/v5Qfkp49l5Lp4WKKbeGufKdTkgZWiXuLfoiAgHe6djMrLEyE9kUQIIW4DS99tjVtBCCHEHnzGIzNu9mgkIK+aiulgfUHqgbEjrETabMgvt6ny+f75pPz8dVPyP18zJW+fTcjhSPCq8lypNeTLqyX5g7NZKTbb3xOC1SG3qPpzYzy0aT9A6w5bbTSlYXFwTizpx+U0P2j7W9uwvV7YjtN8oG1b23GaD261tuM0H7xqfXhZgXGzNyYj8vrpuEwpUYklwGQ8ifkn5IZEWB+Z+H0HU/LDh3Gl9efXTMXkenUPgRfPluvy8YWC/O1yUZarjc5/TbxMSNWL25Xgf51q54GOl99p/0A7XhaBPJsWezrxnFi6vV0+0G5tbcXp87vN2o7TfKBtW9sxffx2+eBWaztO88Grdiw9/DgK7mWJkNzM/b2uAh5/iLefPZaRn79+Rgf4e++BpLx+OqbLMh30yZdXirJQa2qBQMh18ZC8ZioqRyKIBeGsf6AdX2s7TvOBtr+1DSznx7Nt99xutbbjNB9o29ZmIIrMsXxO88Nt1nac5oNX7cTJkyfbn8aIt84m5EcPp7R4JHaAs/ixtH+x2tBnsc+EAxJnhHaiuFCpy/2LBfmNU6uSa3A/rBvBcU2rq6uSzWY739hFJpORqakpa49rGiY4jm9tbU1yuVznG3uYm5uTZDJp1RFvGBziOL7FxUXrjtmEBxflhfaM4/mIczC5heM1L168KM2mfacuoW6gXqTTaWuPX0XZ2XisIsru4MGD+phUsjl+NYgZm3P4seggqDTgjx5Oy72TMYkzMr81+FXpxlR5Quyn1IUYAGaZCfE2OJd/OhSQr+vjG1tSt3gvuK2YwSAuG8G53bgwsCA7A5NB5XLZyvOfUScgDmyqFxADEHQ4hx9lZxMYc+Cs7mg0ynP4dwj6eLRh1AvbBCNA3cAkEC5b+3mbz+HHRJ6tEzWDQu/hN8LLfN6vdEgN/O/K4KiuiEyG2BnbBIo4oP4Hkfyxd5txGYghqOrCgbBfvv9QWg5Hg5v2D0yPb9osbbaZ7udleudpG4EwMOKg93ltSNvIVs/L9NZp2zFL+kG/53d72nZ6n5fpq9Nj4+HH35QO+OT9RyflzkxUkvTuE+IZfL4JmQkF5Jl8VS5VGnoLCHEPNntxAT38uwd1Ays/bKwbsVhMe4xt8/BjAo8eftIN6gS2emCbh60efiwJt609d0MPv7cZGw9/TDUwRHT/rtmEDv5GCPEOaPGHIwG5KxOVY/GQ/q67f2DaHWmb6fe8TDtP207v89qQtpGtnpfprdM2g+fDJBBX7LiX3udl+ur02Hj4r0uE5KeOTsqNygY7R3QRQrwF4jycK9flyXxV6ON3D9jzSw8/6YfNHn54BG3b80sPP+kH+ngE4LTVw482jBU7tsXk6IYefm+ja7WZATB0zwh0W8Og76dDAbkpEZY3TMd0MDdCiDc5Gg3KbamIXB8PO+4/eH+87tvOds/P+1vft4l+sSu2e3633beNnT4/77ct6rmN0fm76fXwd1vDZvljGPf7trPd83v5vq7ZvS8sk+61hkHfPxENyCszUR293a3B3ErNDamqlz8hZPdgwu+udFTePBt33H/w/njdtxEIO1xgu+fn/a3v20Q/T+B2z++2+7ax0+fn/Sv3e3/WNiCOtnp+4Pb7trPd83v5/pYefsMw0zG/T25NRfTeXTeDRyoq0b/Oc8QJ2RNHY0G5ZzIqNyTCElDtapD9DWB6uGkbwUvTvDgHnV9eS9sEnq1X9O81f8YtbRuDzh+vpLv7QFtBW2Z7djeDzi+b0lt6+A3DTF8bC8md6ahc1wnU5VaivgkpK7G/UKlLXT3f1U9MCHEKvPwnVL/wttmEPsZRdRidO20G2f8ApgebthXznHvNH6+lzcoIWxl0fo1b2jYGnT9eScNiSX/vfVuAMOoX18Fp/hjGPW07g84vm9JXT2WNGCzff9d8Qu7KRDrfuBtMpNRaG7Jaa0qrJ9MJIc45EA7IO+YSMqW3+XS+JGSfwEvTduE6LJB3vYMQQoi7QBu2dQ8/xD48+73eUUJs4rLg3+6FPOj7iMR/azIst6aiMqcG9zaA5wip57p/oSAVniNOyK4JqRfvoUhAfvRIWo5FgyPvn3rh/b3ddzvjnr/jfN8LA+lxzn+w1/u2M+75P+733c5m3n3DuOf/Xu/bzrjn/6juXxb8272QB30/ooTxW+eSOip3YJv/1i3gORB4cDLok88tFWWhateRNoSMCnQJiYBf3qb6iEORoPi3cfOPuv/qhfe3vu928MLc6qU67vm/3/dtZ9zzf6/3bWfc838c7qP/s3WVE55vK8E/ivzdimHft51xz/9R3feZQcwoLfblwmv36qmoTClxbBPpgE9OJsLyrWxZTpXqUmxyGSghu8Gv+ihMCN6ZicgRJfqBk/6FdvQWbPfScTN4Tgx2t8sH2v7WVpw+v9us7TjNB9qrrc2CPxC4stLYaX641dqK0+f3qvWZQdoo7XTQL2+cScg1sVA7KJdF4HkORQMSUfbR9bI8V6xJs53XhJBd8MbphLwiE9XbgJz0L7Sjt93nF9sIBrq4nOYH7RVrBhs24uT53Whtx2k+0F5tbW3LeD68w7Z7flusrTh9fq/aqzz85jLpXjuI+/i118RD8uNH0hKDC89CIPrfOReXB1ZLcv+lnKzVG4zaT8guuT0dkTtSEZkN+bftX3h/f+/bCp6tO0J1P2suk+61Xr2Py1bPYO9zdqd7rZvu2852z8/7L7Vow7ZG6YcgwoT1Vs9vLpPutW66byPdz9fP8v7G1R5+c5l0rx3E/RsTYXntdEymQgHxd+7ZBvbyY1n/4UhQvp6tyAfOZCVbZ+R+QnbL3ZNRec+B1Lb9C+/v733b2e75ef+l32Mgbevqj+7nNJdJ91o33bed7Z6f96+2WF2Hy+Yl/d2r1Prlg7lMute66b6NdD9fP8v7qo5PTU3dp78ZEa9TYv975lP62C1bQRYHVOeIpfwvFqvynVxF8vWW3JqO6jPGCSE7I6Zexo2NDXkqX5VcvSE8BGO8wECwXC5LtVrtfGMXeFmGQiGJRqOdb4hTGo2GVCoVqdVqnW/sIRaL6XphBlY2AE8Q2nOxWNRlZxOmHUcikS2DtJGraakXLtpwQdUJG8H+/Xg8ftU+fhspFApSr9c7KXtAu04kEhIMtmM9kf7o6Szzshq2PRYLyS2piF7S7wXuTEfkZvW8RaX8P7GYl88uFWSJkfsJ2TFRf3vVzDsPJCQaaA/UnPY7tMO3Ab9P/Jbv4TdnUDvJD9orFpilhTbiNB/cZm3HaT7QTkhD9X11S8/gB3hGI/a3ygcbrK04fX4v25F5+PEr3zabkDerCxH6vUA84JOyEvtnyzV5IleVc5W6zIWDMhMKWBeskJBhE1NtZi4SlC+vFCXfaGmPPxkPgqpsKpWylMrlzjd2AcEaVAPCZDLJeCw7BB4lrPyw0cMPryA8xjZtWaCHn/SCyU60YazishHUCXiIba8T9PB7m5F4+HGGNgL0vWY6Jjcmw/o7r3BTMqSeOy6YG308X5XfenFVvqAECyP3E7IzsIdwPhyQd84n9ZYgp/0P7fBtvaVEgp7WtRc8HbZk+RzkB+0V2x392ka2e363Wttxmg+07b37uGwEz4cJOyMWt8oHG6ytOH1+L9uRePhjqjH9yJGMvGkmoSNtmz/AC8CT31CD4ecLVVmpNyXbaMlCtaG/uzUd6fwUIcQJEFtYIfOdXFkulOtKZJJxAXs8cdkKhGsA+7V93nqH7RV49m3dw08Pv7tAu6WHf+eg7cK7b2MbRj1AfUA8Dtuhh9/bDP0tBY/IkWhQ3nEgKYciwcveEa+AiP3XJcLyQ4dxDKFPKs2WPKPE/19fysmHz61Lia5+QhyDkzyPRAJyZzqqT8EgZFTglJV6w959rMOCkyOEuB9b43Bgss6mCTtCNmPotTwT9MsrM1G5NhbSgbe8yKTKg1dPx+XmZFiSAZ8UGi15Ml+VP7uQlU8v5uV8pSF1SztTQgYJepCI3ydvmInrFTI89GJ8gLCzeeCEAS88nrYOfAkhpB/dQUttA+8s26PzEwKGOjoLqMH4USX03zqX0IN0r4J8wDLkdx5o7z0GxWZLHs9V5ffOrMlnleg/V25wXz8hDoGH/+7JmN7TT8YD2wU/Br22LXEeBZwgIcTdQOzb2vfprVoU/MQD+MzLeBg2EwzITfGQvG467vnz58NqHIxTCg5GAnpbA/IHXv1H18vymy+uyscurstqrcEI0IQ45A4l+t+q2hRWDG/VD9GOztoMntF4+Dd7ftqXWkwC2bqs38nzu9naitPnp21bCH5bPfzom0z/5DQ/3Gptx2k+eNUq7dmu6MOwr5yMynvmkzrtdfwqPyZDAT35cTIeuiqfVpTQ/6tLOe3tz9abeq8oIWRrrlPtCCdgHAwHJdDxLPfrh2hHYyHsbF/Sbwa9TvKDtm2xMsIMOGzDyfO72dqK0+enndCn42CVqq1tGB5+Rui3A6f54FU7NA//4XBA7khH5KTHjuHbCoQwePVUXF6eCou/48tHfjXUx3PlunxqsSD/9tlFfXwfg/kRsjVYNXRDPCzfdzAlkY7O3K5foh2exUvFvFhsBM/YqNf14Nc85Vb5Qdu2ttcJm62tOH1+2g2p1upSszhYaSjgl7C6gJP8cLO1Haf54FU7NA//nZMxuSUZkVSnIZE2J+IheaXKm5elojpt8quuyuOMEv2fWCjIh85l5etrJe35J4RszmzYL981G5drlPDHEZjb9Uu0w7PmshW8NM0+fvMC7ZcPtC+1tuL0+d1qbcXp89NOKLHfkIbFAft8OGbVIysEbcWsLHSaD161/snJyYGew4/96Uk18P6hwykdVCsWsHeJ524IqvyJqspZb23Id7IVaaqBY3vo2B5QVtX3j+cqUlE27vfrUw7izENC+oLlhuhjLlUacrZck1zdXk/EuIPzfXFOs43n/F5G9d+BYEgHeTIvUbI1qA84h9/GeoGzu3Guu011wUxslUol6wK1oZxQXuFwmOfwOwR9uq3tF0v5I9GoBFWd8ALFYtG6ckSbxvsYfTGDL26N9vAP8gqpAfidmajckorKDCNo9+XaeEheNRWXIzHsPe6fj59eLMhvn16VTy8V9OSA+n9CSB9wAsg7DyTkUCQovk3aE6/hXxhA27yH32A8/P3ygNdLL5vrRb/nteWymX7Py6v/hbglmACyEQh+M3nrhctm+j0vr6uvgXv4U0Gf/MINc3JTKixhDwz+dgs8k6mgX76xVpZKs39nut5oyelSTS6U63IsFpSYEjYI/kcIuQJWFWElzOlSXS5V6vTy7xMQwtVqVXuEbAbilR5C59jsIaSH312gnOjh3xnlcln36zZG6Uf7jUQinqkLtnr4UX708G+PVuTmZbVXC4/+a6fjcmMyLHEPn7vvBAiUeyZj8vJkRJLqM+jNTyzvh+CHl/+/nVqRr66WZI1ihpCrQGuBl/9tcwm5PRXZtH+iHa5t74e0v9+HgIUgcpovXreoE+azjWz3/G61tuM0H7xu0dfZ6uGHQDQi0Wl+uN3aitPn97L1T01NDcTDj3/yukRIfuRwRm5MhCVE7/6WwFOPIGMt2ZDnizVZrfUX8gjWn2+0tJc/32iKT2V0MuDXqwMIIVfIhAJ6QuxUsapXx5DRAg+Q8ebaDDyg0Wj08lJQsjU2r/wwHn6bJrq84OH3kld3L+BkqXwhr9pvTdcLm0BdSCaT1q3Q2QrbPfzmeEXSn4F5+FMBn9yghP69U+oFCFVKtiWscv+dB5LysmRYEir/NstfdLMQMp9ZLsofn8vK55YLcr5cF/r6CblCVPU7t6Ui8qrpuJ6A3Kw90Q7H4qXrhUE0Br4QrzyT35m1Haf54DZrO07zwbMW/wPvfsPOPfzmfWXeWY7zxeXWRvBOdvr8XrYD8/Dfogbab59Lyisy0cu/gGwN8glLkeHBX6g25EJl65k3RPS/UGnoFQG11obchJUU6r9HbjPLCUEMEb8OcvngakEaqr0w1uXowEsXHkF4Bm0HHl14E+hR2B5MjNDD7x7o4ScA9SBfLElR1QPb9u/rsbeqA2i/XqoHNnr4DfF4nO/jbRjIWwoB6CD4XzUV63xDdgLyDfmHfHQCjiD7yPl1+fnHLsrHLq3LEs/rJ0QDL//NybD82JEpffwlGR3hgF8iQW8EzcGgyTYxNCxs3gNMiK2gzRYKBSuD9ZmJHy/EnCHEMJDa/molWLGUf47H8O0K5BvyD/noBHguV+oN+Xa2LH94NqvEf1aeytu9b5YQJyBi/6FYSN5+IClHokEJc3vRyGjJhD4+1AsrvDAIpuh3hu1B+wixDYh9rMjBZeNkHfojnNRAwW8HWI0SUK8YxJwgm7On2o7BdSrglzdMx+W2VJR793cJ8g35912zSX2WuJOj91T9lmKzJY+sl+VjC3n5sws5+fxSQbL1Jvf2E08DL/81saDcPRnTp2GQ0dBSndKG6ru8sESye0BMtgaDMUKIe8CEJo7jg7Wx/dLDbxeoo031Tm7B40A25XJtN4261xr63ceMCo7guyMTlfkIvft7Afl3z2RUXj8dlyimqRzkP0AU/6fzVfmz81n53TNrWvSfKtb0ZAAhXgWxMd46l5CjsZDupzZrPwbeH8x9AMHvBY8uvPt1JfjxpE7zx+v3bcXp87v1vi3s9vm9dB8XVi8hhkPvz9kARD5OWOl+T3U/f7c12HLfZmqNptQ72092mz+2378s+E3F77WG3u/h3Y+pQTUC9R3gUv6BcEyJk584lpHZkF8CPasltiufXKMlX14pyj9/4pL8wZlVPQlQV4V8dbET4g2wlP9103F5eTIsmeCV49M2az+8P5j7GEx5JQgSBsW1alWC6tHxPgTb5Y8X7+Oz7Z60rZ4fuP2+Lez2+b10HxOZOFoVgTZ7hYMN4P2EY1W786A3X7rvAVvu2wxW3Zn6utv8sf2+r3dGwKnFgPp4NChvno3LbJiREQdBSBXK4UhQfuzopByNhvR3TssDFp9qqtL/zaW8/PqzS0r4Z/USfyy1JcSLvGc+KXdPRh21H9q9W+AVwY9nrtZqspbP6+WE5jvaqy0GYjbuA+7GST640dqG0+f2qsVquEa1oqO52wrED6K5wzrNF1uszWCiygSYdJofXrO+3hkBpxYBsX7wcFrmlNhHJ0H2DrI2HvDL2w4k5ZVKpMyGN/dMbmY3ZELWlch/PFfRy/x/9ZlF+fxyUZ/jT4jXOJmIyJ2ZqF7aD5y2I9rdWePhN2nbqatBRj5f0O9AePm3yx8vWtQJk7aVrZ7fzdY2nD63V22xVJaCumwORhoMBCQVj3WOs946P2yzNoMVd0bwO80Pr1n/5OTkfUiYGYB+9N7HWdfwmv34sUlJB32XlzOSvYOV/AiEqHJdLlbqcrpUe0n+99LvPs7pX6039H+frbek0mzpVRlJVXYBlhfxCKjzaB+5elMey/U/yWI37asb3r9yH55csyR0q//GFvQzqiscCskEOm+VF72MU/n0Y9j3UR9sP4cfebAZ+53/O72Pz2jHNp7DD1BeiNBuViKNW/73Mqr7KOtcPq/L3Qgn28DkYzQSlmQioVfE4hqX/N+MQd63+Rx+lC3aNq5uxin/+zHK+1d5+De7eu+fiIXklZNxxxHlyc7B2fyvnIzJZKgdH6E7/3uvze7D219sbsjnlgryh2fX5c8v5OTb62VZrjWkuUUFIcQmbkyE5A0zCTmg+qtAx9vYfYHe77ov3nd+Hy9ds1zSK2A5/3pBDaQaV7wL3Ve/77ovL9y3nX7PbS633reRzZ6z3/fm8sJ9TPAgKj8um737CNYXCIakCf9+1/P35kn3ZdN9m8Ekldk6ttnz97u8dH/HHn548984E5fvmU/JVEeMksGDo/rqrQ3J1pryQqm+5T58J+W3qkQ+jvB7Ml+VZMAvR2NhCfo6FaHzc4TYSBCeV0Wh0ZJnClXdrrrZSf/XD96/ch8WL114Erb6b2wCz4lBMiY6MKBEfnQzyvzvx37fR33Aig96+PszbvfxmR7+K9h+H/ewAmd1ddVqsQ9Q9gjYh77aMO7lM8j7Nnv48YwoV5QxHA+Gccr/fozy/sR11123+U/24WQiLD91bFJ+4FD68kCaDIeyEiZfXCrIrzy9KAvVvXvlUVqYSJgJB+SeTEzedyQjt6Qi7WMACbGYohL7j+Yq8n8+dkEWKg3hoZXDA4PGCxcuaLvVi8g2IP5SqZTE4/HONwTAa7i+vm5lILCZmRlJJBJWBapEm0XbXVpa0mVnExACKK90Ov2Spb9eBLFHqpWKXFhc0kLQ9v56ZjIj01NT0vCom2t5eVkKhYK1WzZM245EIp1vSDfaw9/57IgfViLxzbMJHVCODJfgxISE/Jip2pDHcmW9L38v4L9uqA4d4mex2pDnixUdxT8e8OlJAEJsBXNamOw6U6rrul9qUvIPCwwa4dHFoMJLgh9eUQgKiD+bBOBeQT2weQ+/bVtY0Ga95OH3KhD7mNDJruek7IGYK2insVhclX9Yj4W9CMob/bDNZY13MAV/fy4v6QdbWQR6O5mKyPsOZ+RmZbl3fzRApEyHg1qkINJ+WQkVJ+W1lVUftOC5qP5N/Lv5pnrBqw4gE/JL0O8Tu09MJl4EW5GC8O4EfPJUoSYLlfq27YR29xbeIlwQDl4BgyhcGHB0Lyt0kl82W9sFP8QjnnW7fHCTtVXw49lQXriw/cZ85yWLdyEW59ZUm1zP5aWgytl2sQ+wlF8v5++s7HCaXzZZtGmbBb95/6Kc+f59qXXk4cePI7r7Dx5Ky2um4zKlhCEZDdg2gVMRkOcvFmuyVGtKY4+efgP+mRX1751S/+65cl3CWE2gvsMkQ0SvLCDEHjBpeTwWkifzFTlfaUipQS//sIDIw8DC1qWDmwGhhAtiAh5E87L1Mpj4geC3ce+o8fCbwaUNYNBss+DHZBw8gF718Os+qlGXley6FvtIewEs90a529RWdwo8/DZPxKPvMm2c79+X4sjDD9E5F/bL/3r9rByJhnis24hBfh9TQmVRifMLlbqs1duNdbtyc2prSuSfLdfkM0sFfRQggjEejiD4VHs2mBCbQH+GlS0vlrFn0Xk7od2BVRmLZf02LgneDgymMKgyXn6vexqMh99WwU8Pv3vAs3nZw49yxUTs0sqK7p+9IvbRB2cymcttFXjRmpVWtpc7ng99M555q/xwq8UnJz/Xax15+A+Eg/L2uaS8WV3Y793+z8momVMifEkJ8qfyVWkOxsn/EhardXk8V5GzSgwdUL9vMuSn6CdWgXgVS0rwP63aEffyDx70FpGgX4rFktQsFHnbYTykELjwMnjd04B8oIffPdDDbyemTFeU2EdbRDl7AZQ52ikur67qMEDso+xtX3mHum6rlx9PgxPW0Hx32oK3FfwIdnUyGZb3H5uSo/Tu7ytRv09iAZ/UVSlDrAwD/Nv5RksuVhr6CDMs9ce+56S6Atj4RYjLgYcfk1gIXvlEvtL5lgwUlb+lCpYPeitSv8GIJiOYMPDw2lLS9sBkQqpqkFmxWPCblRw2QcFvFxB6OCUDEdq9JPYB2iYit8O777U+uBcIfZS/jX1xN6jfeFY3b60zz4C2iwlzbMdAGy5iG46659PPtbP6vK3gPxEPyVtmk/LO+ZSEVWOh3t8/ECgxFfDr6P2nSjXJ1ltDOV4Mqwcg+rHMH3udEckfEwExfzueACFuJ+b36bbz6HpFSqrCe0+SDhfkZ61W14LBdm/CZpgXNi58xiRTSPXftr9EIRYxoMRxX9VKWUrlkhb9+N42KPjdhZcEP/oclCOW7muhoC6IB3zvFUx547hUiD/bvL07Be3ZePltB+9dlDfa+biKfvhQ9ThBtVOUjX5vKnGPNosLIt98xmVWygWCQQkGd/7e2VLwI3jbG2cS8n2H0tq77/G2MhYgmB48/ai8LyrRX0aE/c69QYPXwroS+08XqnrPM34nvP3+iba3H5WVEDdiglLiTH60o7qHBkGjAi8yvJy8MLjYCgw8kAcYfIfUwAPBUidU5+lXL2u31zqUsREWGLDgwqAEYhHexHyhqL37Nop9QMHvLjCGsVnwoxaatghhB5GQz+etLEsnQOTH43HdTr3u3QeoG+ifUTe8wOXJdlX25holkEj4jRD0yHtcxgmg26OytZoS+KpMIO5xoa3iMmIfZYWfNc+CPmy37x1/JpPRQfvMP9RtDymR/575pLztQKrz42QcgJf9+kRYzpYbcrFSa3so+5TfoCyGaufLNXk8X5HTpfYS/5S6ouqFSdFP3AqWGyMmyZdWilJqNDEadNQeaJ1bvKwwwPA6yA/kRb6oBt7qxR3y+ySkBqPmxJXt8nGcrPl7AQYimMzA4AQCf319XVsMVMwAxWZw/BMGXsib7fLNLRag7FCmtolEPCPKCxcEv3leYwF+Rn0x9u8DrBiCBdqqKyAb+kz9nBL5pi2iDM3PeQ2UM7z7xsPbnX9etV56J+N5jdMB4ri7HhhMO9ou3/pZCHiAdK/VP6Mu1ctIUfWlyHe8FyHmzfaa7HpOtdWC/s5477d7b+I5EvG49vLjb9jq7+u1E9dee+2m/zKO4fvho5NyVyba+YaMCw1Vai8Uq/KvnrwkX19Tg8jN68fAwJaCsBJJOKLxzbMJ+b6DKbl7Mta5S4i7aKpOcLnWlF964pJ8TbUhbF0hgwMvmWw2qy98Jm30wANXwC/hcEQHfcP+0nEP/obBDQYkRuRjANM9QOm+vMLMzIz2INrkLUb5oYyXl5e16LcNlBXamtnfiwvtDmlcQZUOqzEODkMa15oMPwsCd5Wrdal02mG7TVZVe2x7Er3WFntBucITijYKsUNUnVHZsLq2Jkura51vvAHK3wh+rO7BRBD6gKBq77FwUHBCs5M1aFj1jgn7KhxECrz7uj33xpoLafQirdaVttjdLnfTPgPqGU4cPawGEoEdr+6euOaaazZ6ZwICKmMmAz75pzcekDfPJSTDfdtjB6pJTVWiT17KyZ+cz8qXV4pXzeQM2x4IB+TmVERPBr1Sif7b0lHdGAhxE1XVhr62WpL/99kFeTRXdVz/aZ1ZLCfN5XL08vcB+WPEBi4jQmDxPT5jzz8mB+qqnm6Vz4O0ZtCCz0bQG2sGN90Xfs6rTE9P6/O9UX5O83fcLUB5I5q7jYIfz9nvMmXoU+OY9nabK98DtEmkjcX3yC+T1t+pKxwMSB2nv6jPW+Vzr9WTgPitKl2pNy4vA8Y90x6vsq2mFh9G4OPC96QNhF0ymdRXdz572cLjjNUfEP1erCvIg+53Lq6Av721DgHwdB715Bsw7RA9AQLmoW3iPr4HuNd9mZ839wYJxgeHDx0UvxofYCKh9+/dyvb18CMS/HfPp+Rnjk/JyUS48y0ZR5ZrDfn4pbz86bk1eWJIkfs3A4HPDkaCcosS/q9Qwv8VSvgfiwb1kn9C3IDqB6WkOudff2ZJPrmYl4WKt/ebDxoIfQh+CH+yNRh8YDDSfcHb6MeARA1GzABFv7g7F9IAn7cDL31zdafN4AQWFwaC3Z/NZX6OXIEefnvpbV/d7c/Y7nvA75vQDjMEPu5uKeZnt0INy/UqSlBX7a2hhHx3++xuo6Ztkv6gPCD0sZwfAolcAe9ibPfACi3SBu3TXP0Yl3cf/j6sTpifn9/VO0d7+DufNYgAfyQWlF9++UG5NR2leHMBp4o1uX8hJ79/ek1PAGCp8ijBS2o2HJB3HkjKG2biclMyItOhgA7st/1rjpD959MLefnguTX50nJRz+CSwYBBKfarra6ujsUL043gJQ9vPwaxeMnDdl/mZ8znzTBCoZ94wIWysm3P9rCBh99mwY89p2QwbCYmDOwfBwe2SEHsY/UNuRrsF4fgZ9t2H3jHY+UKJpp3Jfh7PfwQbm+aScg/vXGOS/ldxHOFqvzR2az8xYV1yTeaV80ujxIs7X+3Ev7vmE/JXMgvIQxKqfrJmIP9+7/z4or83pk1fT4/GRwYWEA8YJkwB7XEJujhJ2T8yGQyWuzDG0quBu9jePm56s594D2DuBSYaN5ugr8fOkp/57PmunhYfur4pJxQNrDNjCQZH5IBv1wTD8npUk1Wak0pYw/ZPpCtNXQ0/weXCxJUFXIu7JcEzp4mZIxBxH70dxXVbp5U9ZcMDniPISAg+AmxCUTpx5Lh7by3bsKs/oAnkCs+iJtAO0R7xHJ+ePnJSzETevTwuw8Ifnj4Ubd3887xT01N6WP5wFwkKK+ejutz92P+zfczkPEDy+qx/eJoLCTnyg1ZqqoB9ka7AzTlaD73uwZ1H7vKyq0NWW+05Gy5Ls8UqnqbAZb3Y/UIIeMIgi1hYkpVXfn2ekWqysIX3Vu/N7t4f/v78BbSw09sAt59eBH71fnuC/T73lzjdB+gnaK9UvATNwGvJ5byYyIO26D61e9+l5fuB/0+zMJLvljU3xP3AMGPug3Bj7rer3z7Xeb+VR5+RFt/78GUvDwVufxDxD1A9COIHlivN7XoRyT/UYMxPc6Xxu8/p0Q/zvBfU39PQ91AjIiI6nC4eoSMG6iXWBdzVtVXTFaZM9LJ3sH7BAH84DkkxBaMh383yyvHFXr4iRvBO8acu89AfZuDkbeOraPaNyfg3QUmscyxgrvBPzk5qT38k0G/vGc+Le85mObxai7ncDSohfVSrSkXlXBRPWHnTpveyZxhpjHhgL8DgQUhomqqf8Hy6bAaIHF/Pxk3UB9RLx9dL0upqQa+6rtBtgfgtbSZiTZB4Sj6iS1gP2Xv8sqdto9xTFPwE7cBMYR9+1h1012nd1P/u7Etrb7QxzkiSj9PenAXZg9/9zaynZR/W/CrD2+cTcrbDyTleh7D53owYXMsHpJkwCdfXStJFce7dO7tFzjvHN7+B1eKslRp6L9xqhPUDysTrq6ihOwPOGpyPhKUF4s1uVRtKNFPcToo8OLBIIMigtiCGXzRw0/I/oF3Cybe0un05QlmsjmmjeN9TC+/e8CkVly9c3AG/27quH9KCf6Qf0J+4uikvGo6oQe8xP0EVF1ATIZb0hH5ZrasI4+bZt1bUUadXqo35eG1kjyMv6vekhuTYe31J2QcQH2NB3zyaK4iC0r077W+M91OY3Yay/rhVeAgg9gAPfyE7D9Y5gzvPmzv5Nsg2kM3NqUZV8ddRNW7ZmYqo7TclTLcSXn7D0xP3XfPVEzePZ/Wkfmpu+wAhQwv+mQoIFFl4a3E0WPj0LTrrQ29XHql1tD7pZ8v1KSg0lH/hKR5FCTZZzBcSAcD8kKxqtsNj+kbDOiTICQgIigkiA3Qw0/I/oKJZCzjt+14zGGD93GxWNRtnbiDYCgosXhi1zrOf3xu+r4fPzold2SikqLYsgpEHofoPxgNSku9xLP1lqwqkT0Ooh9/A/b3r6q/CXv7L1XqslxrSl6lcQ+Ci5NPZD/AizDq9+l6eFEJfhx1SQYD8hYiAksJib1AACOwEMQwliECGz1JEPx4TpsEP6DgJ24BgTMh9rHShjgD72HAFXfuAWUWCoXVOyfe+Wbn+N9yzaH73n98UuaVKMReamIXEP04o/9wNCTw72OJclYJ63Fp3vg7cPY59vc/na/o4H5llcaxkH6l+HGcHyP6k/1gLhzUJ008peplhRH7BwI8MBhg4Ex+ehbsBOIXg28MwrvPDIZ4tG1gScFPyP6APgWTiThzv99SfrI96I/5LnYHGDuhnmOCa7f4//W9N953Wzqqo6YTe8HqjSPRsI7R8J1cWWrNjbER/QZ4/LGE+jvrZXm+WO9MVvgkrv5maH6kCRkVWB1TVy/EtVpT1cdq51uyVzBQw0AD3gViFyhbDEhwNBb21EIM40J5QzzaJiAp+AnZH9Dm0M9gYtGsIiI7B+9htvPxB3Uck+cQ/bvF/5tvuPm+qGo41FL2A7E/Fw4o4R+UR9ZLUu4E8jMDcMN+p/FpudaQh9eKSvxXtJc1HfLLpLoo+skoSQT8UlWD3weW89JUFRN1c9D13WvpsMpTbB4rVxkh2DYwGDEeN5Q7gDWrOnDZhBH85lnBdvV/3NMA5YWAXhQCZByBt9NMLPaK/UG3B5vTyEdzPF/3z5DxA9vjIPhx7bq8f+WeG+9TaeIBsCcee5MRvf+aeFjWG029rx9eTFQKc4H9TkNclVsbslZv6j3+j+crcrZYl2TQL6mATy/1J2TYBH3tulZuiZwu1aXR6Ud76yvTztMTEz71AlJtvKX6HiUAOdBwPyhXCF8MwDEQx0DSlDdAGUM82raqo9vD3/285rNb0ygvevjJOII6GlGiZ25qUvyB9nnkvfWXaedptHFcEP1kfIHgx0S6mWA2F3Ca9t9398n79DfEEyBOQ0KJfpzTj20chUZLlqsNqXXt4UHF2GyGCIwyjYj+6+pvPFuqygUl/BHYL4eo6eo+vK/Y36/+n5ChgHmliPofxMH4xmpRR+xHSxlU/QZeSwOk8D0EYO894i5QjgEl8KfSKYlEI/qM4N7yBxhQVioV/dkW6OEnZHSgrqK9JeIx3fZ0rd1jffd6Gti4+so2jIcf9X+35U3B70FU+ev9yUdjIW1xXF9eCZl6Vx+ASmKucUjj3EkI/yfyFR01vdDEdoR2HIKg+pmA36ePUyNk0IRV3UoHffJkviqLtYaUm+O3IsZtaXhE4QU23oXeAQhxByjPoBL4iURcCf60Ktj2ST/9yhv7wiH4bQoQRQ8/IaMDogd79hGpfEK9P1SF1d/31l+mnadxoZ1jaT/fw+MLxD5Wz2ELS3fZAadpCn4PY0T/kWhIFit1dTX08v5xb/Q4WvCRbFkeWCmqz01JKDEGDyyEGTyyxJ1gQRmqHqZysHS+HRgfBao+oMNCch/xqcr1VK4ii1UOggcFxJLZQ0jcBwYfCTUAn5ue0hPGusluAsoYXiSbyhqCHyLEDKxsAO9/TMrQw0/GCbQxBAI1bY4MBuQr+mRcbO/jiwnYB0fJbqHg9zgBNU5BIL87MzG9b/6iEv5FfFCYQcw4WvyFdb2vuiZfWS3qvzsdxPGDfBG4kYYaZD5TqMqCKsdnlX1cCetTqmyL6iUEfyD20gf3cTYHW0eOxILy4EpRx5TAZISTekq7uTVeUYgLM+Ag7gFlB29bIplUIwkfvrj8fT8LMKC0KW5D95L+zZ7bjZaCn4wTeFdA7JuTP4CTekzrzJrPaPNkPIHY7xb8W5XnZnZi4x+9Z+hvXujHs+WaPJuvamEGr2y21pCVelN8Sroh8jqWZWdCfrkuEZEb4iG5JhGWSSXgyGiAR/WFQkU+s5iX+xfy8ui6exo+lvLPhgNyIh6Wa1XdectcUu6ajLH+jDlPKFH/ZL4izymBj4mb9Tr2x2/ouA04ohHu/ljALxH/hEwHA1pwX6/6hXtU2U6r8oYIHzX/+bkl+fML6/ICj+kbGBAV+XxeCoUCRb9LwOABYt+ctW8GFVuBssUy8bW1NWuW9U9PT2vRvxevy7iByRi0yZWVFetiLhD3gbaFPgYBQeHZh/gngwVtHvF0stks4+qMKel0WjKZjKN37WYM1cOPgHDPqAH9Z5cK8jklJB9cLck31PWIGujjejxflWeVyHy+VJfn1M+9WG7IGTXwRzRsWEwMoOKlQwEu1R4yyF+IqJlwUIksnzSV4Mo1O8KrU8G6Z4rGyaoPuq7hDH8IsdV6U1bU55L62zEMg+efjAcoJ4j8Ty3kVb+Qly8tF+QbayX5VrYs5yp1OafaPcoRnv4l1f7PlWtyplzXEwJndP9Ql/PqXqHekqh/YuRlW2q29N9zqljbtD7S7swasYS+noGDxh+UGwbgOH4PywydehzMQB1eJFsEPz38hAwP9C3YtwzPvplY3Kre0u7eIg4WTiSqVKrSouAfK/DuxLume3J9N3bggh/VpKGE1jk1OP92tqS9xR88uyZfVUIfYgz7X9eVIKsg6JqqVPj5prLwMBcbTbmkBvNPKUHweK6sfr6mj2bDwB5XiIHZhg7Ouj8aCyrhH9ARyRHMr6rKyg3DM/RRmKB4UdUb7LVGVP+q+g6dGP7+kGo0++EVJm2WVNt/WAn7v764Ln9wZkUeWiu3xbuqY9uB2BLoN7BS6KG1kiyofwuklOBPBfx6ldAoShZbC54vVHXwSPRbZDCY5f0QGLaIQRtBGcHLBm9bt9h3Cv572wS/bV5HjMso+Ml+Yzz7EPsQ/WS4oG8OBwNSKrcDq9LLPz4gVg7aAt65e2Gggh/VA3txL6hB/B+cXpUPqOuLywUtHHdadSDcMKj/znpZD7BnIm0RGtEDw84PkaEQ8/t0ML9b0hFZrTZlqdaQUrM9OeMWMFEEr/DDShxCIGISCvUnrp4N9QcCkYwGlfVSVS+Q+y/l5L+dWpa/XSpIBV/uAWwNemy9qicRblb1NB5AwMbhi35MMJwr1fUqBUyGkcGgZ5/VAA8vNiwppOgfP4zYh2cfS/l3K3KxigNC0oYBpY2CH1Dwk/0EfY3x7FPsjw68ddEro91ze934gHcMBL+JX7FbBir4sff2rBJZv/b0onxxpaiX5e512AZdgL3+COQVUp0A9mgjGjsZLjivP6nEzV2TcX3u/UKloaz7OoCm6r5w7CC2j3x9tSj5ZkvmIkHJcJn/SMDSsGy9JR86l5U/P5/Vgfk6MSH3DLz+EPxYCXRzKiKJgF/X22GzjJUGqp/DhBIZHBjkQThB+NPTP35gsKGD9KlB+G4FLkQ+BpIQ/TaULwU/IYMFbQn7lc2WIbwXyGgwk7rmNBV6+ccDOELQFsZG8GOJ/qO5ivzOi6s6ajqOThvUwB6rBuBNW1MDbfyTt2c44zdsyqo8ny/U5DML7X3WWEoNgeU28BejHqJ+4hx/CLXH1yvytBKeyYBPT2rsZ/R320EchT9WYv8TF9f1pN1ePfvd4F/CygEs9ceRYMdjIb0lZdigb3uxVNdBB8lgMYLfLCum6B8PMNCA0Ifg3+ky/n5gFYcNHiQKfkIGA8Qm+hmzggjtimJ/9CDPcaEPYPsfDyD24eFHm9gLA3tLIdI2AnH97VJeC3MsoQZmhmivttxoypNqgI1lwZ9bLGgBRwYP8vX5YlXn8wdOr8ifnlvTy5cRXwE4La9xtPrZVD39/HJBPqqeC1tOPno+Kw9nS1rEkcGCvfmPZMu6LsGzj4B3TsppJxb9zIoqu09dWpfPq74HwT6HDY6xPNY5/tHp30nr3GI2G8s4ceEz2V9QBhiAozyM2HdSjv0sMALZhsG80+d2qyVkFKBfgaBBP4MLfQ76B6f1lHawFhMv6O/36lEmgwHtA+9Mp+W3mR2Ih39NDbg/vZiXv7ywriNs4582L/NBWniYsbwcy3jvnorpJbx0zg4GeMHhxX8sV5a/XSzIx5VI+6wq05UavKcbjsrHLRZzUQUlPjGRgQB/a/WWXkWCe35VoRCYjfVqb2B66FSxKh85n5UHlws6BgTYqlx2a/EvY/UGJqUORIJyXSI81BgNIVU5llW7+NRCDn+A/s7J30nr3GLAZ7ymXFq4P6AsjNjv9bjtxaJccdwbvEduL9deD7+T53eDRbnQw0+GDeob+hiIS6wgQnsyYt/cpx29RX9m+jQs7+f7d38xky9oG8BpOfbagXj4EXn7ATWoP1WqXa4Yw7LrtXYgv0fUlaszqMRegdDF8n2cjvChM2vyzx+7IP/5+SV5aK2o7zstF7danBzxJ+fW5JefuCj/7tlFLU4Re6KiBCqjsO+eomqbj+cq8pGza6p+bTguj71YbCnChBViNgyTqN+nY0Dg+Mr2dIOzv492ZxbL2LC8cy97xsnugVchpgYa2E9rBhpOys2Jxb83iK0B+43T53WrJWRYoE9HP4D+HX0MxL7p553WT9rhWZQNhCYme/n+3V8g2FEGTsptKzuQUvzaakmeLrSX0m43wzAIC4H6NxdzcqHMoFl7BQHP/sepFXn/N07Jh5XwNcedOSkHm2xOidIHVgryS09ekn/5+AX5iMqLs2WeCb5bcFLH0/mqIAfR1Tgth71YHTRUldmz6vcOG8R/uDER0atBgJO/j3bn1gwIIfyN6CTDB2I8rgZ7B6Yn26dfbFNOO7Xwitsg+J0+r1stIcMAfTmE5PT09FV9u9N6STsai34a5dO9nYuMHoh9lMl25bWd3dOSfuyfRaRqRN9+eoTnUmNJ9lqtLm+aTcrxOPeY7BQcefhQtix/caEdOf2BlaKcVsIfEynIWy+CaPIQjKVGS1ZrTT0R8pSq05cqDX0qRNw/oc/xJ874sqpTf6PqF1aOjApUXRzbOR8JyB2ZWPvLIbFYbchXV4tysVzTq2TI8DCeIAw4MFPN44KGC/I5lYhLSg30xKfyvPP9IEFAqFqtppeLuhkMhLu3OtgC2hiX9JNBg3YCT75Zvt+9HYaMJygzlBP6bG6v2x/QXlAGe2Vi4x+9Z9elB4GIQH3//YVlvR961PzarYfkXfNpSQTYYTgBQdSwrxpbMHA2PZZcQ5AhmBp5KTEl8o9GQ3JrJiq3paL66LdrEmGZ5JF+W4LgiL91akV+89TyyM+qR9m8+2Bafvnmg51vhgPazn95fkn+dokBREcFBhvY+10sFq2J8j5uQOxDxKbUACMajQzspJ1eUHbr6+uSz+ddPYCEhxLCxSbvF8oDQn9lZUW3N0L2CkR9SAmWuOpTQpGIBIIheoxdRr1aUf11QQqlEk/PGSGYcJmbm9Pv5b2yJw8/hOKfX8jKY+tlNbAf/eDr+nhYjsZCMh3iUs/NwFAKnmtEL/+WEvqfXMjLh8+s6TgIiG6Oe6Q/yJtllUc4fu3FYlVW9fFvGzqgHy4G9+vPar0hX1guyNdW23EgRgkmIafDAXn3fLq9FLnz/aDJqnrxZK4qTxcqbEMjAi8+DBLh7YcoMRcZDMhbxE3QAfpCIfXuGF7nhrKEqISX381lmFB5FQrB82LXi2DYHn4IQNQ31ANcbMd2Yvpr069kUknxK7GvCr3zE8QthOFhVsXWpKd/pKD9mGCWe2VPHn5EcP+HD52Rx/NlHZhr1Lx1Lik/cWxK3jib6HxDDCgNFAm8j/Dif/Dsmo66P4pjy2xmKuiXV07G5XsOpfSy8ZlQ+xx/P19gl3m6UJX/8cKy/Nn5bOeb0fLa6bj8+m2HZVYJ/2GVy7PqGX/vxRW9LcacQEBGBwYbhUJBXxCN5juyOzAwRxTgTCYzsmW2WKmRy+X0ag23cmT+gESiUWlYVPXQjobl4Ye4R90Kq7oWjkT078G2DhMJ3LRhtmX3YiZx/ChnVcbwTOLIPfQxxP3gfYvVWZgQpKd/uKAdoe3gvYxJs72yJw9/sdGS3z+9oj3F++HkwvFbt6WjcoL7+F9CqdHUwutDZ1bl3z+7KN9YLeqz5umM3BuIf3C+XJMHl4vyRL6ixV466JdJrjK5zFO5ivbuP6/q336Ao/nunoxpT/+wBD8mOBGYEFtjqmxU+4LxHGEgafYXkp0DAYZBBSJlQ/RjkDEKUF5G8LmVYEjVP3heRpRno2JYHn7Ur3QyKbOTaQmovEO9g/cKF+6ZfapozxT97sP0JYj/MTeVkUg0JoERTSCS0aAn7NR7Fxb9A0X/8MC7GOOcQU2Y7akVqi5ZL6E1S//MQGFUlvTnwZWi/OfnluTfPL2gTzM4U67rvdTNfSonmywCU5aVwMNSf8RC+IMzqyqfF/We9cdzZX0WvNdB3uDITCf5OQyLYaIuhSGOFzHxs1Zr6gk0p38X7WAtXoAQCOZYJ1xmIEKcgTxMJxMynbki9rfL90FZDGTc7vULBfwS8Lfrm9PnHnc7DPBvY0l3KpWSmLKtCb/4VNmjraIeoB1D9ONnJicn5cDsjMyryxzXNqpVJ2RnoFxN2cELOTU1pW1UpcUflAlVZqbcNqtvtO6yps3ivYuyRpt1ez8+ziCvkffblYsTu2cP/wfPZqWwTyKHHv4rQNA/mavI/Zdy8olL6/Kl5YIOpIgzyemAHA7YLoHVLfD0ni+3r7V6S0dtj/gn9HntXuS5fFUHtTu7T9tHEGjx3QdTkgkFhhZjYalal6+vluQp7uHfV/ASMwMQIxyQxtW9RJhcDfIHAj8ZVyIL3tVw+PLE/SiBd8jNgeGQd4EA9raOPu+GCcplEB5+tE8s38ekUkzVtXA4ooV+b6vEz+kBqbqHKxQMSSCo+m9/u12jrkZVHY2EQ/q/x8+gDpPRgjIy5YHJVXgesWTfLNvHd7iv+9/Of0PsBGWMsjZtUZc537d7xvSDGMvofk+1LXzG93tlz4L/j8+u6mXNKGbzB43KUvC3ywBC85trRfm4Evp/cGZFnlCCa10JfZVR+mec5ift7iz2by5XG0r8VeVUsaZFP4L74bbS/XqPPwLIeYU1Vfcw2fS8ygvgNB8HZa9PROQHDmckovLdfDdoMNHz7WxZB+0z+3e3+7toh2uN4MdL0gxAAO5zINLOBz1YV3kUUQNzeFoRjR8B+hCGYrN8HZZF+RjB79Zloe2l6O2gfU6fe9wtGITgR12DAEQeTaZTl4O1Ofk7cEyuTLTbMNozrlg0ouutX9VftHNcRmzA4sJ/2/vvkd1h8tKIOlMO3dswjOA3P2P+O1pvWFzmnWvaornPd64zkGe40Ib0+1nlJfrN7kk0k7egXzk4tXsS/NjH+pcX1yVXb8h+vK5vUIL/9kxUjse8JfjRjhqyIZXWhj4r/o/Prslvn1rR+6axn5jNbP/Aigos7f+mKovTxbrEAz59hbX4VI270/hspqL6hcdyFXl8vdz5ZnTAo39DPCzvOzp5uaMbBti2gP37zxSq9PCPGXgxmpemEQXoNE0pDbNejBN4Tlx6QKEs9tJiEJFOpWQ60xZgG+r7/ay+EJbYw+/W+AuTyYSeQLFtF+teBD/qXEC1OUwoYUk+lne3ZGLP4xLUU6xCQXtGuzaDYiM88R0GzKjv3W3cfDbtgfTH5I/uLzoX8hR5jGXbWMKdTCYv53W3CCHeBvXG1BVYwBV2L6W7jcGavsxMnKGdoY2hTzPjF/Ozg2BPgr+mXgqPrldksdrUe/lHzaumY/KKTEzmI+0K5hVwBOIjSkz93oureg85hH6ugVgKZFyoqcI4X6nLg8sFeSJX1ZNjXgnuh0HZd7IlfQzkqEEe3676hLceSHa+GQ4I3PjphbzetgDvKBk/8JI0M+aZRLyzHLjd/iBobB6M4Nnx3BhE4Oi4A9OTSoAldNRsBJlrqfvj8PQoB4h9E6XdbWArhD8wmOWW48RuBT/yAQPV2alJSao2N+Fre92HCf59I05R5zF4xsAZF+o//h7jPcPP2d72d4rpK5BvEBpGdODCZ3yP+4MUHsReIGLNZBzqDuqN18U/2o0ZixhhbybQTD+Fe6aPGhZ7EvzwbOGM8lPFqt5DPmreMpfSHn6vREgvNlta3H/47Jr8+fmsXlJ8oVzXYpKvr/EC5YG9/CgbLHHH8vanlPC/WGlI2D8hcb9PQkNs2PsJtjA8k6/I4/mqjnMwSo7Hw/Ka6bjcNRnrfDMccLzl31zI6aNJbfPu2QRetPpSbc2n2hzELpYFp+OxdoR1NTgxg1i3DkjwDGYw0S12jOdTD9b9AZ0HJj/GCQh+LOt3Y/5n4OEPBfUkp03sVPCjTkFwm4Es2hbam7rT/oEhY+o1LgyYzWXaBv42iBC0BwyuU6r9x5TF34l7+Dlc+G/wb9gmTrrzwYgOI+5RXkacGa8ifrY7P8xFyHaYumLaFOoT6pZ5F5l6ZRt4ZrSb7v6mW9yjvZl2hvumnY2yje3pHH4M5r+0UpT/8OyiPDbC5bvIEuyN/te3HpZ3HEhJKmhvhMhGa0MKjZY+Yu+R9ZJ8XeX3o7mKPlufuAss7UdAuZtTEX2G/8uVvSYekikLJ6w+uZCTD7y4Il9W9XWUvHs+LT99YkrumYp3vhk8mOj8/FJBfuHR8zpWht5vSlyDeX/UldCs1RtacDaVsJnYaOnv6g2VVtZ4n/d78I9BgBkgmc96MKUsosRPqM9mvzO+7x5EjDvIW5zrvLy8vOcAcfsBoslHozG9NcImsOJidXXVUUBF1Dkz2YQBLerfuNc9tP+W6sfR3k07N57/7nbf/V33Z4DP5tpvuvsF89lcSBuR1f1zxo57WRE7QDtBu0I/D9t9mfbV3cbGrW2ZzyZtrt5093doX6atjQN7EvwY6GIp+T9/7IJ8Vg3wsaccBYSHHaYN+n1yMOyXX7vtqLx6engD+/0GQv9sqao9pV9czMlXVkuyqIS+03yiHV97IhaSu5UovXcqJjeno3IgHNATVwF1zwaeK1T1KpTfeH5Je8Cd5stebFLl389dM6OvRGB4HSziNHz84rr8M9XvOfm7aMffqg8SUu+VUrWmBH/7bHgMOmDRIlstTOy0PZ8G/LeG7s9boX9XD+a7XgtBr/5l9cWVQQQuCCoMIoLKRkNBaan7TfV34d5mzzfOFnnqVsE/mclILBbVHn6nz+sG21JlsZbNSqVa7Txpf/CzxnsHj5app05/zzhb1EuIEXzuFSf4DiCNVor2h2/M98aC7s+99LuH398PfG8uEFB53Q5u2P4OfYLpG1AOZuIFFr8Hn2lpx8ma9tQ9CdDd7ibUhbZlnCr4ztD9eS/g7+hnN3v/9rYvpI3tfb5xs3sS/IbfeH5ZPnp+TZ5Vg/xRgOXQP3R0Un7y2JSO1G8TKAx4EHHO96PrZfmrC1mdtzU1zhxM9SbjxJQSqXdNxuV7D6f19pTZUEAviferxulmio2mfG4xL//yiYuyXr/SYQ+Tu1U+/syJKXn3wXTnm+GA5fx/eWFd/u0zC51viM2EVHtsqAFIpd6eCAAYlJiBP65uEbAZeOGagUN3Ghcwn006Ggzghy6fAmEryLdisXh5kOcmELQP20RsKiPUzpCqgtl8Uaqd+r4ZZrkuBrtexORVpd68vFoA9PYN5rtuzL3uOt+vjzCfjdDApYMiqrGCerVySxmxkt62ZSYDQHe76W1XTjDtCpd535q2ZdI2vn8HIvgRoOu3Ty3LX13M6UJAJg7Loijmo0H5d7cfkVtSEYkH7HrRYJvEF5YL8ulLOfnOekXOl6tSVuIfy8+c5A+tuyzqc9jvk6j6cHsmLm+eTcjr1XVN3N0TWfCGnlbC+CPn1uQDp1ckrzptJ/mxF/tLNx+S7z6Ulpkhb5F4cKUgf3R6VT6u2qiTv4vW3RYR7mHxojTfY5DR+3NOecm/rwYY3Wlj4WGAVV/0vW+TxWDOyc+Nm8WgFOWHCU0nP+8WC/cCxhzb/1z7+bf7OZutz4f+oN3+e+/36yd6bS+b/VxvPvvVuIHjQlqbLfoh1SJe0o6ctCun1kvv34EIfiw9/9jFdfng2TUt/ofJESX2v/dQRn7mmmmZDPpd7wk1rCpB9Ei2LJ+6tC5P5CH063rpMI/88g6IMH8gEpTr4iF9+sSrZ+JyTSzk2kktnNzxfKEq/8/TC7pfGFZgz5ga+LxzPiU/c2JaXpaMSABn8w0RLOf/XSX4v7E62vgEhBBCCCGE7JQ9Rek3YMkjApJhmI2I/SU1sB/GEl4cv/e66YS87+iUHFbC3+37nZsqj5aqDXl4rSyfXcjrQGdfXCpoz2gBgaOGkIdkfMHqjhVVHy5U6nrCB9davaWj/Uf8ExJVwtZNYGsC9tUnVd+wWmtKttYYeNT+6VBA3jCbkB9WfcLJRFiiQ9y7D/D3P7BSlL9dzOs2SgghhBBCyDgzEA+/4YViTT50ZlX+dql9PnW1yzttlhQYdppOKMHzprmk/NCRKXmjGuC7GUTexxF7EHTfWCvKA0rk41z9BSX2DHvNL6btSGNp/12TUbl3Mi63ILhfNCgpJWrdNtn1F+ez8rFLOXlY1XccZTeI/JkJB+RV0wn58WNT8srJmJ54HDbYv//fXljSS/r3+vczzbSBaaaZZtrANNNMM20YVHogHn7DZAgByGJa0EK8rtcb2tO/lxkF/M3wbN6ejskPHZ2Stx5Idu64E0yCwIv77WxJPnR2VX7vxRV5Ol/R2yII6WWt1pAnchX55lpJr/yI+rGaxq/FLdoG9he7gZtSES3Qc/WmnC3XLu+H3mnfgKfFNh6sKMLE348fm9bn7o9qaw/KARN0L6qyIIQQQgghZNwZqOAHATXuvikVlRkl/gvNllysKNHfuWdmHLqtuUy61yaUuPnpEzPys9dMy52TMb1M2M1g/+9vK5H/wTOr8mShqo8yVE+q7/V7fnOZdK/lfW/cx6kNF1RbQsC4J3JVKTc3JBMK6DgWbmEO8QkSYUkFA7JWa+pglIiA2u+5jTWXSaP936H6gf/l+jl537EpuT4RGelqh/sv5uQbSvSv1Bp9/75ey/u8z/u8b9K9lvd5n/d536R7Le/z/iDvD3RJfzfLakD8bL4iD6vB8VdXi/ItZYtKpDjd23+tEgb3TMblVdNxuT0Tk4ORgOv2MBvg0Ydn8DOLOXkyV5Fz5bqs15tDiXNA7Afn9ePcfohnHEX37oMpmVViOthp2OMMAvktVOpyqdKQr6l+AUdPPocgleo7BKjs1yIwiYitDbemo/KyVFRuy0TlepXOqHwYdoA+A9oqgg7+X49dkM+qdlzkihxCCCGEEOIChib4AbySi0rsQuQ+UyjLxXJDe8YwcF5XFsvYMWyGkA+rgbtfjd0Rhf9AJCQn4iF5uRrcn0yGJebDuaTtf9NNYAk2Jj0eV8//kBL831wrasGzIe1jEgyYeWGaaYPTdCzgk+OxsJ4Uu0GJ/9uVIL5e2YhLJsYQ4PN0qS7nVTtZqNZV/1AXhMEzz4enwNJ9THAcjobkWtUnHFV2LhIY+ekc2Irz4HJB/t0zC/Koas+7KS8D00wzzbSBaaaZZtrANNPDSg9V8PeC6OMY1CMy/ZIa4CN4F84RTagBfUIN7OGhfFk6or15cZd68xFRfV09F2IYfEkJhC8t5bXgX61dCchHyKBBm3nDTEJeq65jsZC6gnoizS17/BH340y5dtUxlBD1k6GAEvztvmG/gHd/WbXpf/P0gvztYk73X4QQQgghhLiBkQp+m4FOqbVaekUDti/8zcV1vYwfQr93xqUX3uf9Qd2fUgL5nsmY/N1rZ+REPKwj+od8EP76NtkFOGb0iXxF/v43T+sVSr2MU/n3g/d5n/d5fzN4n/d5n/c3g/ftue9ON/oYkm805ROXcvIvHrsgv/TERfniUl7v0wfI7N4C6U7zPu8P6j7q3BeWC/KPHjotv/Cdc7pOom6S3XOp2pCPXcjqM/gNm+W/gfd538D7vM/7vN8N7/O+gfd5f1T36eHfA3WViQjIh+BjDywX5dFsSQcfw9FjhOw3eu97JCi3ZmLyupm43DsVl+lwwBXB/cYFiPwvLhXkvicuyEKlobfsEEIIIYQQ4hbo4d8lWLr/JSUEfuvUsnzw9KrcfzErT+Yrl8X+VjMugGmmuxlGGnURdfKTl9blj1Qd/e8vLOtjIZ/FcZBd3mqyOcirLy3n5VypdpXYH0T5dMM0090wzXQ3TDPdDdNMd8M0091slqaHfwc0VaYtK6GPY/UeWy/roHxfWMpvepwYIePGnZmovHYmKXdNxuRELCTzkaBE/BOuCe43SrBf/8/OZeWDZ1b1iQKEEEIIIYS4DQp+B0Do44jBNSUAPrOQlw+fXZWncmVpdHKuN2gC00yPczrom9DHX37XXErecygtx+NhSQb8ElSan8K/DSLzf2ohJ394elVP7A0y/5lmmmmmDUwzzTTTBqaZHlaagt8Blyp1Pej/MDx9pZrkak29vJcZR9wIJL1f/Q+O7UuH/PK66YS8fT4tr5yMSTrob/+Qh4HYX6u35P/7+Hn53GJeig1ufyCEEEIIIe6Egn8TzLngX1spykNrJXl0vSyni1UptzD4H9yMC2Ca6f1KI4jHXDQo18XC8sqpuLx2Ji6vmIxLyMPn+CH2wX98dlE+fjErFyp12WB7Z5rpTopppplmmmkD00y7JT3xlfe9aeMVkzFPD/C7wdL95VpD79F/YLkgj2TL8mKpppfzE2Ir8PYfjATl5amIEvwxeVkqKtcnwjIXDnR+whtgNc9nF/I6wOGFck2fxEEIIYQQQohb8adTqftuSUclHvB5dv8uhvQIvHep0pAncmV9hv7HL6zLJy6uyzk16C8zojmxHNR/TGo9X6jKE+sVWa7WBVo37PfpPf84yg8zhTaDIza/vFKU3zm1rIP0UewTQgghhBC34y+Eovddl4jIbDigvXxeE/0IyFdWYuesEvY4sgyD/Y+eX5cX1YC/pXc7t5dE0NJ6wWL/ekm1h2fyFXlGif8lJYITql9IhvwSUPfRP7R/2i4w4fHgalH++MyqPJQt6Xxwkl+0tLS0tLS0tLS042z90WTqvq+rge5sKCCHoiFJBLwVtAvn6UPo/+pTl+QLSwW9ZxeTAIR4nWKzpT3+Dyzn5alcVWbCAZlWwj/kw85/u0Af+JGza/LF5YKO30EIIYQQQogN+FOp1H1VNcA9V6pp793haFCSHojU/XiuLB+7mJM/ObMqn1VC/5QSNqXmhhb7TmZKaGlttwhWV2u1pNQSvcQfbQbxLFQzkalQQMf9MD/rVhCz4xtK7H/w9Kp8Vdn1enPbfKGlpaWlpaWlpaV1i/Wn0+n7kFitNfUe3poSvJlgQDIhv3XL+yvNlpxRguVTl3LyCXX97UJOvpUtycUyvPrtvfyEkKtBhE/EsbhYqbevck0uVesS9Pn05GDYpQE/sWf/weWC/Nm5rDy4UtDbFwghhBBCCLEHkf8/C585IhkhyMMAAAAASUVORK5CYII=;" vertex="1" parent="1">
                    <mxGeometry x="307.76" y="550" width="152.24" height="50" as="geometry"/>
                </mxCell>
                <mxCell id="54" value="" style="verticalLabelPosition=bottom;html=1;verticalAlign=top;align=center;strokeColor=none;fillColor=#00BEF2;shape=mxgraph.azure.github_code;pointerEvents=1;" vertex="1" parent="1">
                    <mxGeometry x="503.33" y="540" width="50" height="50" as="geometry"/>
                </mxCell>
            </root>
        </mxGraphModel>
    </diagram>
</mxfile>